<?xml version="1.0" encoding="utf-8"?>
<!-- Generator: Adobe Illustrator 25.4.1, SVG Export Plug-In . SVG Version: 6.00 Build 0)  -->
<svg version="1.1" xmlns="http://www.w3.org/2000/svg" xmlns:xlink="http://www.w3.org/1999/xlink" x="0px" y="0px"
	 viewBox="0 0 1920 1080" style="enable-background:new 0 0 1920 1080;" xml:space="preserve">
<style type="text/css">
	.st0{fill:#B9C676;}
	.st1{fill:#F7BE29;}
	.st2{fill:#F4B26F;}
	.st3{fill:#8FA82E;}
	.st4{fill:#008A3B;}
	.st5{fill:#00693B;}
	.st6{fill:#F09C26;}
	.st7{fill:#C7A97D;}
	.st8{fill:#A68955;}
	.st9{fill:#B84D29;}
	.st10{fill:url(#SVGID_1_);}
	.st11{fill:url(#SVGID_00000090257484552888861510000018036137252813287040_);}
	.st12{fill:#8C517B;}
	.st13{fill:#00B4D5;}
	.st14{fill:#8B4936;}
	.st15{fill:#D54D1D;}
	.st16{fill:url(#SVGID_00000097464920269899808930000002574858663551004092_);}
	.st17{fill:#E9624E;}
	.st18{fill:#CDD500;}
	.st19{fill:#EA7624;}
	.st20{fill:url(#SVGID_00000161590414774857367950000005567516223233749387_);}
	.st21{fill:#ABBD00;}
	.st22{fill:#711162;}
	.st23{fill:#EE8A3C;}
	.st24{fill:#A87B95;}
	.st25{fill:#93A756;}
	.st26{fill:url(#SVGID_00000060747596350754154720000007469266382050742144_);}
	.st27{fill:url(#SVGID_00000027577460554450026860000015216114379783775381_);}
	.st28{fill:url(#SVGID_00000018237277316997268870000001739262533932468394_);}
	.st29{fill:#86A074;}
	.st30{fill:#6A912D;}
	.st31{fill:#4A671E;}
	.st32{fill:url(#SVGID_00000093858681148188854640000007202867142782712494_);}
	.st33{fill:#39B54A;}
	.st34{fill:none;stroke:#000000;stroke-miterlimit:10;}
</style>
<g id="Layer_1">
</g>
<g id="Layer_2">
	<g id="XMLID_00000061452484662584457680000006355382781239608711_">
		<g>
			<g id="XMLID_00000097483648357156688580000001901809288081881730_">
				<g>
					<path class="st0" d="M1920,363.64c-32.54-25.92-77.15-30.3-96.93-67.21l-0.36-1.09c23.11-7.65,45.7-16.93,66.15-26.93
						l0.27-0.79c10.13,3.51,20.42,6.37,30.87,8.48V363.64z"/>
					<path class="st1" d="M1640.64,352.8c16.17-10.66,32.61-21.29,50.69-28.07c1.75-0.65,3.5-1.27,5.28-1.85
						c17.94-5.84,36.92-7.47,55.58-10.25c22.93-3.41,47-9.5,70.52-17.29l0.36,1.09c19.78,36.91,64.39,41.29,96.93,67.21v129.77
						c-28.74-9.39-119.36-33.95-136.57-51.64c-58.47-60.09-65.77-54.32-142.39-88.36L1640.64,352.8z"/>
					<path class="st2" d="M1583.56,396.29l0.38,0.36c15.91-16.91,35.51-29.87,54.91-42.67c0.6-0.39,1.19-0.79,1.79-1.18l0.4,0.61
						c76.62,34.04,83.92,28.27,142.39,88.36c17.21,17.69,107.83,42.25,136.57,51.64v126.47c-85.59-9.24-168.38-56.37-236.52-108.93
						c-39.09-30.16-76.41-62.81-115.05-93.53C1571.99,409.45,1577.16,402.21,1583.56,396.29z"/>
					<path class="st3" d="M1269.13,880.84c12.09-9.18,24.65-17.7,38.13-24.66c15.14-7.81,31.25-13.58,46.69-20.74l0.12,0.26
						c76.25-19.97,156.32,0.64,234.64,9.52c63.58,7.2,128.25,6.63,190.69,20.6c22.93,5.14,45.49,12.22,68.8,15.2
						c17.66,2.26,36.1,1.52,53.45-2.5c4.3-1,8.54-2.22,12.67-3.75c1.52-0.56,3.7-1.18,5.68-2.02v47.64
						c-32.27,1.1-70.9-8.88-102.56-10.76c-35.05-2.09-69.65,7.11-104.4,12.17c-93.5,13.62-188.47-2.71-281.55-19
						c-26.84-4.7-53.68-9.4-80.52-14.09c-26.79-4.69-53.97-9.4-81.05-6.84L1269.13,880.84z"/>
					<path class="st4" d="M1252.24,986.24c-27.96-2.05-62.21-1.05-83.79,16.84l-1.53-0.5c3.06-9.38,6.72-18.52,11.3-27.28
						c16.37-31.33,43.29-55.68,70.54-78.2c6.69-5.53,13.45-11,20.37-16.26l0.79,1.03c27.08-2.56,54.26,2.15,81.05,6.84
						c26.84,4.69,53.68,9.39,80.52,14.09c93.08,16.29,188.05,32.62,281.55,19c34.75-5.06,69.35-14.26,104.4-12.17
						c31.66,1.88,70.29,11.86,102.56,10.76v86.72c-152.02,2.01-189.77-28.64-243.37-20.73c-53.87,7.94-32.18,23.24-86.32,29.09
						C1477.58,1027.67,1365.33,994.51,1252.24,986.24z"/>
					<path class="st5" d="M1168.45,1003.08c21.58-17.89,55.83-18.89,83.79-16.84c113.09,8.27,225.34,41.43,338.07,29.23
						c54.14-5.85,32.45-21.15,86.32-29.09c53.6-7.91,91.35,22.74,243.37,20.73V1080h-369.77h-354.31h-0.69h-45.27
						c1.26-6.75,2.5-13.5,3.75-20.25c3.56-19.21,7.19-38.65,13.21-57.17L1168.45,1003.08z"/>
					<path class="st6" d="M1430.05,780.61c32.38-43.06,82.16-71.1,134.57-83.6c52.41-12.49,107.43-10.39,160.53-1.27
						c22.65,3.89,45.35,9.05,68.31,8.2l0.77-1.26c4.07,2.54,8.22,4.88,12.45,7.08l-0.13,0.25c-25.56,8.67-51.12,17.34-76.69,26.01
						c-22.08,7.5-44.43,15.05-67.67,17.02c-3.95,0.34-7.89,0.51-11.84,0.55c-15.37,0.2-30.76-1.47-46.11-2.67
						c-35.24-2.74-70.98-2.97-105.6,4.15c-23.91,4.93-47.36,13.55-67.99,26.48L1430.05,780.61z"/>
					<path class="st7" d="M1696.61,322.88c-1.78,0.58-3.53,1.2-5.28,1.85l-0.17-0.47c-27.69-15.25-42.12-48.25-60.13-74.23
						c-13-18.76-29.24-35.03-43.19-53.1c-21.99-28.47-39.69-68.8-48.79-103.61l-0.62-0.65c21.71-20.8,44-45.39,58.59-71.43
						c31.24,43.11,67.93,80.4,106.47,117.13c53.25,50.78,115.68,105.13,185.64,129.25l-0.27,0.79c-20.45,10-43.04,19.28-66.15,26.93
						c-23.52,7.79-47.59,13.88-70.52,17.29C1733.53,315.41,1714.55,317.04,1696.61,322.88z"/>
					<path class="st8" d="M1568.43,417.42c-29.59-23.51-59.95-45.89-92.47-65.13c-18.05-10.68-36.65-20.33-55.69-29.03
						c-6.83-64.99,16.42-132.54,61.8-179.56c16.88-17.49,36.47-32.12,54.09-48.85c0.76-0.72,1.51-1.44,2.27-2.18l0.62,0.65
						c9.1,34.81,26.8,75.14,48.79,103.61c13.95,18.07,30.19,34.34,43.19,53.1c18.01,25.98,32.44,58.98,60.13,74.23l0.17,0.47
						c-18.08,6.78-34.52,17.41-50.69,28.07c-0.6,0.39-1.19,0.79-1.79,1.18c-19.4,12.8-39,25.76-54.91,42.67l-0.38-0.36
						C1577.16,402.21,1571.99,409.45,1568.43,417.42z"/>
					<path class="st1" d="M1650.35,753.59c3.95-0.04,7.89-0.21,11.84-0.55c23.24-1.97,45.59-9.52,67.67-17.02
						c25.57-8.67,51.13-17.34,76.69-26.01l0.13-0.25c29.67,15.45,62.88,23.66,93.49,37.61c4.99,2.27,10.82,4.11,15.86,3.5v0.01
						c-25.01,6.41-51.18,6.05-76.98,5.64C1776.15,755.54,1713.25,754.57,1650.35,753.59z"/>
					<path class="st9" d="M1565.86,610.11c-21.67,15-39.24,34.12-50.39,57.89c4.74-13.01,8.34-26.38,11.73-39.81
						c4.9-19.41,11.28-39.02,23.9-54.56c12.6-15.53,37.49-26.93,57.22-23.66c6.48,3.5,12.86,7.18,19.11,11.08l-0.29,2.19
						C1613.32,585.21,1587.19,595.34,1565.86,610.11z"/>
					<linearGradient id="SVGID_1_" gradientUnits="userSpaceOnUse" x1="1567.95" y1="-9.913492e-11" x2="1567.95" y2="1073.9507">
						<stop  offset="0" style="stop-color:#00B4D5"/>
						<stop  offset="0.0253" style="stop-color:#27BDDA"/>
						<stop  offset="0.0544" style="stop-color:#4DC5DF"/>
						<stop  offset="0.0848" style="stop-color:#6CCDE3"/>
						<stop  offset="0.1163" style="stop-color:#84D2E6"/>
						<stop  offset="0.1496" style="stop-color:#96D6E8"/>
						<stop  offset="0.1856" style="stop-color:#A0D8EA"/>
						<stop  offset="0.2295" style="stop-color:#A3D9EA"/>
					</linearGradient>
					<path class="st10" d="M1565.1,532.55c2.02-0.22,3.94-0.4,5.7-0.51C1569.2,532.27,1567.26,532.44,1565.1,532.55z"/>
					
						<linearGradient id="SVGID_00000016075126664146015200000003902991901049899405_" gradientUnits="userSpaceOnUse" x1="1514.965" y1="-9.913492e-11" x2="1514.965" y2="1073.9507">
						<stop  offset="0" style="stop-color:#00B4D5"/>
						<stop  offset="0.0253" style="stop-color:#27BDDA"/>
						<stop  offset="0.0544" style="stop-color:#4DC5DF"/>
						<stop  offset="0.0848" style="stop-color:#6CCDE3"/>
						<stop  offset="0.1163" style="stop-color:#84D2E6"/>
						<stop  offset="0.1496" style="stop-color:#96D6E8"/>
						<stop  offset="0.1856" style="stop-color:#A0D8EA"/>
						<stop  offset="0.2295" style="stop-color:#A3D9EA"/>
					</linearGradient>
					<path style="fill:url(#SVGID_00000016075126664146015200000003902991901049899405_);" d="M1514.48,670.16
						c0.31-0.7,0.64-1.4,0.97-2.1C1515.23,668.67,1514.9,669.37,1514.48,670.16z"/>
					<path class="st12" d="M1502.82,526.32c10.68-3.33,21.88,1.9,32.77,4.46c6.81,1.6,20.16,2.24,29.51,1.77
						c-6.28,0.7-13.41,1.78-18.9,2.11c-5.21,0.3-10.53,0.64-15.35,2.62c-9.96,4.09-16.01,14.53-18.35,25.04
						c-2.34,10.5-1.69,21.41-2.32,32.15c-1.31,22.59-8.44,44.81-20.5,63.95c-0.57-1.62-1.23-3.2-1.97-4.74
						c0.13-2.12,0.23-4.25,0.29-6.37c0.32-10.61-0.13-21.23-1.33-31.77l0.35-0.04c0.43-27.61-4.55-42.2-4-55.94
						C1483.57,545.81,1489.69,530.42,1502.82,526.32z"/>
					<path class="st13" d="M752.9,365.48c-12.26-9.7-24.03-19.96-35.25-30.84c16.54,10.6,33.02,22.23,49.58,33.45
						c18.05,12.24,36.2,24.01,54.62,33.46c50.29,25.81,92.12,42.28,151.3,60.08c23.52,7.07,47.87,14.52,72.81,21.28
						c0.01,0.01,0.03,0.02,0.04,0.01c25.55,6.94,51.69,13.15,78.13,17.49c15.07,2.47,30.05,5.8,44.93,9.65
						c21.81,5.64,43.39,12.41,64.7,19.28c10.93,3.53,21.89,6.66,32.81,9.77c0.03,0.01,0.05,0.02,0.08,0.03
						c24.61,7.03,49.03,13.96,72.47,24.94c6.54,3.06,13.08,6.13,19.62,9.19c22.69,10.63,45.37,21.26,68.06,31.89
						c10.94,5.13,22.49,11.13,32.79,18.28c0.01,0.01,0.01,0.01,0.02,0.01c2.12,1.87,4.36,3.58,6.78,5.04c0,0.01,0.01,0.01,0.01,0.01
						c9.08,7.24,16.7,15.56,21.31,25.18c0.74,1.54,1.4,3.12,1.97,4.74c1.73,4.79,2.72,9.9,2.79,15.33
						c0.12,9.01-2.41,17.54-6.32,25.64c-4.56,9.47-10.99,18.36-17.27,26.81c-2.04,2.74-4.09,5.49-6.14,8.24
						c-17.07,22.79-34.85,45.56-55.49,64.76c-12.53,11.65-26.11,21.99-41.22,30.21c-3.96,2.15-7.99,4.14-12.08,6.03
						c-15.44,7.16-31.55,12.93-46.69,20.74c-13.48,6.96-26.04,15.48-38.13,24.66c-6.92,5.26-13.68,10.73-20.37,16.26
						c-27.25,22.52-54.17,46.87-70.54,78.2c-4.58,8.76-8.24,17.9-11.3,27.28c-6.02,18.52-9.65,37.96-13.21,57.17
						c-1.25,6.75-2.49,13.5-3.75,20.25H0v-36.33c118.76-11.04,235.6-42.27,344.11-91.79c21.89-9.98,43.45-20.71,64.61-32.17
						c68.83-37.29,133.97-82.36,207.28-109.82c16.31-6.11,32.86-11.29,49.6-15.74c81.77-21.74,168.07-26.05,252.55-35.92
						c101.78-11.88,207.23-34.32,286.3-99.5c9.86-8.12,19.63-17.67,25.02-28.95c2.16-4.51,3.61-9.29,4.1-14.37
						c3.09-32.51-32.89-53.47-63.58-64.63c-25.03-9.11-50.71-17.92-76.68-26.8c-37.52-12.82-75.63-25.74-113.24-39.8
						c-48.24-18.04-95.64-37.95-139.87-61.88C809.28,405.57,779.92,386.88,752.9,365.48z"/>
					<path class="st14" d="M1486.15,699.39c3.91-8.1,6.44-16.63,6.32-25.64c-0.07-5.43-1.06-10.54-2.79-15.33
						c12.06-19.14,19.19-41.36,20.5-63.95c0.63-10.74-0.02-21.65,2.32-32.15c2.34-10.51,8.39-20.95,18.35-25.04
						c4.82-1.98,10.14-2.32,15.35-2.62c5.49-0.33,12.62-1.41,18.9-2.11c2.16-0.11,4.1-0.28,5.7-0.51c0.01,0,0.01,0,0.01,0
						c12.81,5.44,25.35,11.36,37.51,17.93c-19.73-3.27-44.62,8.13-57.22,23.66c-12.62,15.54-19,35.15-23.9,54.56
						c-3.39,13.43-6.99,26.8-11.73,39.81c-0.01,0.02-0.02,0.04-0.02,0.06c-0.33,0.7-0.66,1.4-0.97,2.1
						c-4.06,7.62-16.85,22.63-28.14,29.32L1486.15,699.39z"/>
					<path class="st15" d="M1483.02,559.56c-0.55,13.74,4.43,28.33,4,55.94l-0.35,0.04c-1-8.9-2.53-17.74-4.58-26.45
						c-6.65-44.12-4.16-56.07-1.32-68.29c1.39-6,7.94-14.44,14.06-15.15l0.23-0.73c25.77,8.07,51.25,16.72,75.74,27.12
						c-1.76,0.11-3.68,0.29-5.7,0.51c-9.35,0.47-22.7-0.17-29.51-1.77c-10.89-2.56-22.09-7.79-32.77-4.46
						C1489.69,530.42,1483.57,545.81,1483.02,559.56z"/>
					<path class="st12" d="M1394.04,479.58c-4.76,6.39-3.12,15.44-0.25,22.88c15.97,41.32,60.21,65.18,81.31,104.13
						c6.8,12.55,11.03,26.49,12.35,40.71l0.55,0.01c-0.06,2.12-0.16,4.25-0.29,6.37c-4.61-9.62-12.23-17.94-21.31-25.18
						c0,0-0.01,0-0.01-0.01c-2.18-1.74-4.45-3.42-6.78-5.04c-0.01,0-0.01,0-0.02-0.01c-5.82-5.12-10.69-11.36-15.55-16.5
						c-19.21-20.33-47.89-31.93-61.31-56.48C1371.17,529.32,1371.32,499.62,1394.04,479.58z"/>
					<path class="st15" d="M1576.83,668.45c-41.53,11.16-85.27,31.87-114.09,65.99c2.05-2.75,4.1-5.5,6.14-8.24
						c6.28-8.45,12.71-17.34,17.27-26.81l0.19,0.09c11.29-6.69,24.08-21.7,28.14-29.32c0.42-0.79,0.75-1.49,0.97-2.1
						c0-0.02,0.01-0.04,0.02-0.06c11.15-23.77,28.72-42.89,50.39-57.89c21.33-14.77,47.46-24.9,61.28-46.87l0.29-2.19
						c6.76,4.21,13.38,8.67,19.84,13.41c17.2,12.62,32.98,27.04,48.35,41.93l-1.33,2.18
						C1662.81,647.87,1618.37,657.29,1576.83,668.45z"/>
					
						<linearGradient id="SVGID_00000176009887000795565560000015712005567695737241_" gradientUnits="userSpaceOnUse" x1="1463" y1="-9.913492e-11" x2="1463" y2="1073.9507">
						<stop  offset="0" style="stop-color:#00B4D5"/>
						<stop  offset="0.0253" style="stop-color:#27BDDA"/>
						<stop  offset="0.0544" style="stop-color:#4DC5DF"/>
						<stop  offset="0.0848" style="stop-color:#6CCDE3"/>
						<stop  offset="0.1163" style="stop-color:#84D2E6"/>
						<stop  offset="0.1496" style="stop-color:#96D6E8"/>
						<stop  offset="0.1856" style="stop-color:#A0D8EA"/>
						<stop  offset="0.2295" style="stop-color:#A3D9EA"/>
					</linearGradient>
					<path style="fill:url(#SVGID_00000176009887000795565560000015712005567695737241_);" d="M1466.39,628.49
						c-2.42-1.46-4.66-3.17-6.78-5.04C1461.94,625.07,1464.21,626.75,1466.39,628.49z"/>
					<path class="st17" d="M1460.68,532.99c-7.83-14.34-18.42-30.17-24.88-45.18l0.28-0.89c19.61,6.02,39.38,11.85,58.98,18
						l-0.23,0.73c-6.12,0.71-12.67,9.15-14.06,15.15c-2.84,12.22-5.33,24.17,1.32,68.29
						C1477.49,569.54,1470.3,550.61,1460.68,532.99z"/>
					<path class="st18" d="M1412.58,794.64c5.72-4.78,11.76-9.14,18.07-13.09c20.63-12.93,44.08-21.55,67.99-26.48
						c34.62-7.12,70.36-6.89,105.6-4.15c15.35,1.2,30.74,2.87,46.11,2.67c62.9,0.98,125.8,1.95,188.7,2.93
						c25.8,0.41,51.97,0.77,76.98-5.64v-0.01c1.4-0.16,2.73-0.51,3.97-1.1v44.51c-17.11,6.03-41.81,13.4-57.67,19.21
						c-16.33,5.97-32.72,11.97-49.74,15.55c-76.01,15.99-152.43-17.39-228.29-34.07c-35.79-7.88-72.39-12.07-109.03-12.48
						c-21.5-0.25-44.13,1.13-62.34,12.57L1412.58,794.64z"/>
					<path class="st19" d="M1430.65,781.55c-6.31,3.95-12.35,8.31-18.07,13.09c-1.79,1.5-3.56,3.04-5.28,4.62l-0.05-0.06
						c20.64-19.2,38.42-41.97,55.49-64.76c28.82-34.12,72.56-54.83,114.09-65.99c41.54-11.16,85.98-20.58,117.46-49.88l1.33-2.18
						c31.48,30.49,61.3,62.98,98.34,86.13c0.09,0.06,0.18,0.11,0.27,0.16l-0.77,1.26c-22.96,0.85-45.66-4.31-68.31-8.2
						c-53.1-9.12-108.12-11.22-160.53,1.27c-52.41,12.5-102.19,40.54-134.57,83.6L1430.65,781.55z"/>
					
						<linearGradient id="SVGID_00000111897677382671745200000004151662939480394895_" gradientUnits="userSpaceOnUse" x1="1392.2" y1="-9.913492e-11" x2="1392.2" y2="1073.9507">
						<stop  offset="0" style="stop-color:#00B4D5"/>
						<stop  offset="0.0253" style="stop-color:#27BDDA"/>
						<stop  offset="0.0544" style="stop-color:#4DC5DF"/>
						<stop  offset="0.0848" style="stop-color:#6CCDE3"/>
						<stop  offset="0.1163" style="stop-color:#84D2E6"/>
						<stop  offset="0.1496" style="stop-color:#96D6E8"/>
						<stop  offset="0.1856" style="stop-color:#A0D8EA"/>
						<stop  offset="0.2295" style="stop-color:#A3D9EA"/>
					</linearGradient>
					<path style="fill:url(#SVGID_00000111897677382671745200000004151662939480394895_);" d="M1390.36,479.24
						c1.27,0.02,2.51,0.13,3.68,0.34C1392.63,479.46,1391.42,479.34,1390.36,479.24z"/>
					<path class="st15" d="M1358.74,573.27l0.49-1.05c-9.21-7.1-14.04-18.88-14.53-30.49c-0.49-11.62,2.96-23.1,7.85-33.64
						c3.62-7.83,8.17-15.42,14.73-21.02c5.65-4.83,15.14-8.01,23.08-7.83c1.06,0.1,2.27,0.22,3.68,0.34
						c-22.72,20.04-22.87,49.74-11.31,70.88c13.42,24.55,42.1,36.15,61.31,56.48c4.86,5.14,9.73,11.38,15.55,16.5
						c-10.3-7.15-21.85-13.15-32.79-18.28C1404.11,594.53,1381.43,583.9,1358.74,573.27z"/>
					<path class="st21" d="M1353.95,835.44c4.09-1.89,8.12-3.88,12.08-6.03c15.11-8.22,28.69-18.56,41.22-30.21l0.05,0.06
						c1.72-1.58,3.49-3.12,5.28-4.62l0.35,0.42c18.21-11.44,40.84-12.82,62.34-12.57c36.64,0.41,73.24,4.6,109.03,12.48
						c75.86,16.68,152.28,50.06,228.29,34.07c17.02-3.58,33.41-9.58,49.74-15.55c15.86-5.81,40.56-13.18,57.67-19.21v78.47
						c-1.98,0.84-4.16,1.46-5.68,2.02c-4.13,1.53-8.37,2.75-12.67,3.75c-17.35,4.02-35.79,4.76-53.45,2.5
						c-23.31-2.98-45.87-10.06-68.8-15.2c-62.44-13.97-127.11-13.4-190.69-20.6c-78.32-8.88-158.39-29.49-234.64-9.52
						L1353.95,835.44z"/>
					<path class="st12" d="M1228.27,485.74c21.33,12.63,50.6,14.99,75.11,11.26s47.39-16.39,72.13-17.96
						c7.47-0.47,6.12-0.71,9.09-0.38c-11.29,0.13-19.74,7.32-28.41,14.07c-29.61,23.01-66.48,36.54-103.94,38.11
						c-9.47-7.65-16.56-18.44-20.49-30.06C1230.1,495.88,1228.96,490.84,1228.27,485.74z"/>
					<path class="st22" d="M1257.67,534.69c-1.88-1.16-3.69-2.46-5.42-3.85c37.46-1.57,74.33-15.1,103.94-38.11
						c8.67-6.75,17.12-13.94,28.41-14.07c1.1,0.11,2.8,0.3,5.76,0.58c-7.94-0.18-17.43,3-23.08,7.83
						c-6.56,5.6-11.11,13.19-14.73,21.02c-4.89,10.54-8.34,22.02-7.85,33.64c0.49,11.61,5.32,23.39,14.53,30.49l-0.49,1.05
						c-6.54-3.06-13.08-6.13-19.62-9.19c-23.44-10.98-47.86-17.91-72.47-24.94c-0.03-0.01-0.05-0.02-0.08-0.03
						C1263.45,537.93,1260.48,536.45,1257.67,534.69z"/>
					<path class="st23" d="M1242.68,392.04c2.42,0.14,4.68,0.81,7.32,2.66c51.47,47.92,117.88,71.29,186.08,92.22l-0.28,0.89
						c6.46,15.01,17.05,30.84,24.88,45.18c9.62,17.62,16.81,36.55,21.41,56.1c2.05,8.71,3.58,17.55,4.58,26.45
						c1.2,10.54,1.65,21.16,1.33,31.77l-0.55-0.01c-1.32-14.22-5.55-28.16-12.35-40.71c-21.1-38.95-65.34-62.81-81.31-104.13
						c-2.87-7.44-4.51-16.49,0.25-22.88c-23.29-6.21-34.31-6.33-56.34-6.5c-22.65-0.18-45.27-3.83-66.82-10.77
						c-15.51-5-32.07-13.4-37.07-28.91l-0.26-0.08c1.35-4.57,2.93-9.06,4.7-13.49C1241.43,411.88,1244.8,400.33,1242.68,392.04z"/>
					<path class="st15" d="M1202.06,398.66c10.9-2.62,21.81-5.09,32.95-6.13c3.01-0.28,5.41-0.62,7.67-0.49
						c2.12,8.29-1.25,19.84-4.43,27.79c-1.77,4.43-3.35,8.92-4.7,13.49c-1.44,4.78-2.64,9.62-3.61,14.51
						c-2.47,12.44-3.39,25.39-1.67,37.91c0.69,5.1,1.83,10.14,3.49,15.04c3.93,11.62,11.02,22.41,20.49,30.06
						c1.73,1.39,3.54,2.69,5.42,3.85l-0.32,0.5c-2.04-0.56-4.01-1.26-5.91-2.09c-18.08-7.85-30.08-27.01-35.07-46.46
						c-5.5-21.5-4.34-44.06-6.16-66.19c-0.63-7.64-2.02-16.03-7.94-20.9L1202.06,398.66z"/>
					<path class="st17" d="M1233.81,433.4c5,15.51,21.56,23.91,37.07,28.91c21.55,6.94,44.17,10.59,66.82,10.77
						c22.03,0.17,33.05,0.29,56.34,6.5c-1.17-0.21-2.41-0.32-3.68-0.34c-2.96-0.28-4.66-0.47-5.76-0.58
						c-2.97-0.33-1.62-0.09-9.09,0.38c-24.74,1.57-47.62,14.23-72.13,17.96s-53.78,1.37-75.11-11.26
						c-1.72-12.52-0.8-25.47,1.67-37.91c0.97-4.89,2.17-9.73,3.61-14.51L1233.81,433.4z"/>
					<path class="st21" d="M853.32,596.01c8.17,0.02,16.34-0.28,24.48-0.92c17.1-1.33,34.7-4.03,51.09,1.03
						c11.07,3.42,20.78,10.17,31.43,14.72c46.87,20.03,101.06-5.31,151.45,2.36c38.23,5.82,80.93,29.34,117.38,16.42l0.32,0.16
						c-5.39,11.28-15.16,20.83-25.02,28.95c-79.07,65.18-184.52,87.62-286.3,99.5c-84.48,9.87-170.78,14.18-252.55,35.92
						c-3.16-0.48-6.59-2.23-10.45-3.37c-23.64-7-47.29-14.01-70.93-21.02c-12.41-3.67-25.03-7.45-35.76-14.67
						c-10.71-7.2-19.03-17.51-29.68-24.8c-9.01-6.16-19.58-10.08-27.63-17.45c-4.78-4.37-8.4-9.69-11.51-15.41
						c26.25-7.06,51.36-14.12,77.6-21.19c29.01-7.8,60.05-16.9,78.7-40.44c9.04-11.41,14.71-25.75,26.2-34.67
						c25.88-20.11,66.2-2.93,94.94-18.68l0.56-1.73C788.48,590.75,820.9,595.94,853.32,596.01z"/>
					<path class="st17" d="M1141.62,325.6c6.87-0.34,18.54-1.39,29.91,2.36l0.09-0.19c5.31,2.56,10.48,5.41,15.45,8.63
						c10.3,6.67,19.47,14.74,28.24,23.32l-0.05,0.05c-11.06-5.01-15.18-5.16-21.15-5.02c-18.37,0.45-33.97,12.93-51.21,19.31
						c-14.04,5.19-29.24,6.3-44.21,6.51c-14.89,0.2-29.78-0.43-44.59-1.91c-32.89-3.28-65.36-10.69-98.39-11.98
						c-13.52-0.52-27.06-0.02-40.58,0.49c-12.01,0.44-24.02,0.89-36.03,1.34l-0.11-2.9c2.82-0.09,5.62-0.25,8.41-0.45
						c26.99-1.98,53.27-9.19,79.64-15.29C1024.36,336.62,1082.86,328.49,1141.62,325.6z"/>
					<path class="st4" d="M853.33,594.61c9.37-6.13,21.23-13.61,31.7-17.55c4.82-1.82,9.85-3.16,14.4-5.55
						c4.6-2.42,8.58-5.82,12.52-9.2c6.07-5.2,12.13-10.4,18.2-15.6c5.08-4.36,12.56-12.06,14.99-18.3l0.03-0.57
						c7.73,0.31,15.48,0.27,23.23-0.2c12.86-0.78,25.68-2.76,38.56-2.42c28.53,0.77,60.33,11.72,86.11-0.54l0.24-0.7
						c25.97,8.88,51.65,17.69,76.68,26.8c30.69,11.16,66.67,32.12,63.58,64.63c-0.49,5.08-1.94,9.86-4.1,14.37l-0.32-0.16
						c-36.45,12.92-79.15-10.6-117.38-16.42c-50.39-7.67-104.58,17.67-151.45-2.36c-10.65-4.55-20.36-11.3-31.43-14.72
						c-16.39-5.06-33.99-2.36-51.09-1.03c-8.14,0.64-16.31,0.94-24.48,0.92L853.33,594.61z"/>
					<path class="st22" d="M938.87,410.24c-13.85-6.72-23.89-12.01-40.31-12.07c10.86-0.74,21.71-1.71,32.54-2.85v0.01
						c78.34,0.28,148.92,40.21,205.06,94.85c8.66,8.42,21.63,15.3,33.01,19.43l-0.11,0.45c-14.88-3.85-29.86-7.18-44.93-9.65
						c-26.44-4.34-52.58-10.55-78.13-17.49c-0.01,0.01-0.03,0-0.04-0.01c-11.82-5.06-20.59-15.71-29.99-24.74
						C994.03,437.13,966.21,423.52,938.87,410.24z"/>
					<path class="st24" d="M1146.3,407.46c8.15-0.08,16.29-0.75,24.35-2.01c10.58-1.65,20.99-4.29,31.41-6.79l0.21,0.89
						c5.92,4.87,7.31,13.26,7.94,20.9c1.82,22.13,0.66,44.69,6.16,66.19c4.99,19.45,16.99,38.61,35.07,46.46
						c-5.43-1.38-10.71-3.32-15.74-5.77c-11.13-5.41-21.07-13.3-28.75-23.01c-5.71-7.22-10.16-15.33-14.59-23.4
						c-7.06-12.88-14.13-25.76-21.19-38.64c-6.77-12.33-13.82-25.01-24.86-33.73L1146.3,407.46z"/>
					<path class="st17" d="M1042.13,388.92c-11.59-2.48-23.49-4.71-35.7-3.76c11.73-1.69,23.54-2.88,35.25-1.39
						c17.39,2.21,33.45,10.18,50.14,15.53c17.56,5.64,36.04,8.39,54.48,8.16l0.01,1.09c11.04,8.72,18.09,21.4,24.86,33.73
						c7.06,12.88,14.13,25.76,21.19,38.64c4.43,8.07,8.88,16.18,14.59,23.4c7.68,9.71,17.62,17.6,28.75,23.01l-0.54,1.1
						c-29.47-9.3-65.16-38.37-86.03-60.64c-15.99-17.07-29.3-37.11-47.97-51.2c-8.21-6.2-11.09-8.04-19.53-12.69
						C1068.96,396.93,1056.37,391.97,1042.13,388.92z"/>
					<path class="st25" d="M716.63,333.63c-1.48-1.44-2.94-2.89-4.4-4.36c-0.03-0.03-0.07-0.07-0.1-0.1l-0.01-0.01
						c-29.27-38.74-60.77-76.81-96-110.16c38.65,2.55,84.76-4.38,120.27-19.84c35.52-15.46,68.55-36,102.2-55.2
						c16.24-9.26,33.11-18.38,51.63-20.95c18.53-2.56,37.25,1.64,55.49,5.82c40.09,9.18,84.47,20.27,124.56,29.45
						c-65.11,27.86-129.66,57.19-194,86.44c-50.5,22.96-106.49,50.58-152.1,83.37c-1.19,0.85-2.37,1.7-3.54,2.56
						c-1.14,0.84-2.28,1.68-3.4,2.53C717.03,333.33,716.83,333.48,716.63,333.63z"/>
					<path class="st14" d="M1136.16,490.18c-56.14-54.64-126.72-94.57-205.06-94.85v-0.01c21.84-2.29,43.61-5.28,65.3-8.64
						c3.33-0.51,6.68-1.04,10.03-1.52c12.21-0.95,24.11,1.28,35.7,3.76c14.24,3.05,26.83,8.01,39.5,14.98
						c8.44,4.65,11.32,6.49,19.53,12.69c18.67,14.09,31.98,34.13,47.97,51.2c20.87,22.27,56.56,51.34,86.03,60.64l0.54-1.1
						c5.03,2.45,10.31,4.39,15.74,5.77c1.9,0.83,3.87,1.53,5.91,2.09l0.32-0.5c2.81,1.76,5.78,3.24,8.9,4.42
						c-10.92-3.11-21.88-6.24-32.81-9.77c-21.31-6.87-42.89-13.64-64.7-19.28l0.11-0.45
						C1157.79,505.48,1144.82,498.6,1136.16,490.18z"/>
					<path class="st22" d="M719.6,334.18c49.96,17.1,106.49,33.31,159.39,31.43l0.11,2.9c-14.72,0.55-29.45,1.1-44.17,1.65
						c-19.9,0.74-40.76-1.81-59.66-8.08C756.5,355.86,743.53,347.1,719.6,334.18z"/>
					<path class="st3" d="M827.9,506.88c21.56-6.83,45.89-4.59,68.29-7.69c24.59-3.41,59.1-16.48,83.88-15.01
						c37.61,14.06,75.72,26.98,113.24,39.8l-0.24,0.7c-25.78,12.26-57.58,1.31-86.11,0.54c-12.88-0.34-25.7,1.64-38.56,2.42
						c-7.75,0.47-15.5,0.51-23.23,0.2c-30-1.21-59.81-7.63-89.26-14.01c-9.41-2.04-18.82-4.08-28.14-6.44L827.9,506.88z"/>
					<path class="st21" d="M677.06,450.67c24.58-6.32,52.01-13.53,76.59-19.86c17.58-4.52,35.64-9.08,53.68-7.11
						c8.72,0.96,24.03,2.22,32.37-0.47l0.5-0.93c44.23,23.93,91.63,43.84,139.87,61.88c-24.78-1.47-59.29,11.6-83.88,15.01
						c-22.4,3.1-46.73,0.86-68.29,7.69l-0.13,0.51c-4.56-1.14-9.09-2.37-13.59-3.71c-6.86-2.04-13.64-4.34-20.4-6.68
						c-1.62-0.56-3.23-1.13-4.85-1.69c-6.35-2.21-12.7-4.43-19.05-6.64c-5.3-1.85-10.61-3.7-15.89-5.6
						c-25.67-9.21-51.69-19.88-77.27-31.65L677.06,450.67z"/>
					<path class="st3" d="M807.8,295.87c-3.5,0.71-6.94,1.48-10.34,2.31c135.07-48.01,283.95-56.12,425.9-32.74
						c67.68,11.14,134.65,29.4,196.91,57.82c19.04,8.7,37.64,18.35,55.69,29.03c32.52,19.24,62.88,41.62,92.47,65.13
						c38.64,30.72,75.96,63.37,115.05,93.53c68.14,52.56,150.93,99.69,236.52,108.93v129.89c-1.24,0.59-2.57,0.94-3.97,1.1
						c-5.04,0.61-10.87-1.23-15.86-3.5c-30.61-13.95-63.82-22.16-93.49-37.61c-4.23-2.2-8.38-4.54-12.45-7.08
						c-0.09-0.05-0.18-0.1-0.27-0.16c-37.04-23.15-66.86-55.64-98.34-86.13c-15.37-14.89-31.15-29.31-48.35-41.93
						c-6.46-4.74-13.08-9.2-19.84-13.41c-6.25-3.9-12.63-7.58-19.11-11.08c-12.16-6.57-24.7-12.49-37.51-17.93c0,0,0,0-0.01,0
						c-24.49-10.4-49.97-19.05-75.74-27.12c-19.6-6.15-39.37-11.98-58.98-18c-68.2-20.93-134.61-44.3-186.08-92.22
						c-11.99-11.16-22.98-23.52-34.69-34.98c-8.77-8.58-17.94-16.65-28.24-23.32c-4.97-3.22-10.14-6.07-15.45-8.63
						c-15.76-7.59-32.83-12.58-49.84-16.92c-27.72-7.07-55.89-12.95-84.29-17.36c-30.83-4.78-61.93-7.82-93.01-8.73
						C898.58,283.42,852.72,286.71,807.8,295.87z"/>
					<path class="st19" d="M767.24,368.08c8.58,5.17,42.56,20.09,52.39,24.35c17.67,7.66,37.61,7.76,56.85,6.97
						c7.37-0.3,14.73-0.71,22.08-1.23c16.42,0.06,26.46,5.35,40.31,12.07c27.34,13.28,55.16,26.89,77.1,47.93
						c9.4,9.03,18.17,19.68,29.99,24.74c-24.94-6.76-49.29-14.21-72.81-21.28c-59.18-17.8-101.01-34.27-151.3-60.08
						c-18.42-9.45-36.57-21.22-54.62-33.46L767.24,368.08z"/>
					<path class="st22" d="M736.12,335.2c23.64-0.08,49.45-7.59,71.18-13.27c45-11.76,92.18-25.41,137.18-37.17
						c31.08,0.91,62.18,3.95,93.01,8.73l-0.05,0.31c-45.11-1.01-86.67,22.36-130.12,34.53C851.98,343.82,793.49,341,736.12,335.2z"
						/>
					<path class="st12" d="M717.23,333.18c1.12-0.85,2.26-1.69,3.4-2.53c24.99-12.37,50.65-23.17,76.83-32.47
						c3.4-0.83,6.84-1.6,10.34-2.31c44.92-9.16,90.78-12.45,136.68-11.11c-45,11.76-92.18,25.41-137.18,37.17
						c-21.73,5.68-47.54,13.19-71.18,13.27c-0.01,0-0.03,0-0.04,0c-6.43,0.02-12.68-0.5-18.66-1.77L717.23,333.18z"/>
					<path class="st4" d="M797.46,298.18c-24.98,6.05-47.51,15.19-73.29,29.91c45.61-32.79,101.6-60.41,152.1-83.37
						c64.34-29.25,128.89-58.58,194-86.44c140.63-60.17,283.89-113.5,433.36-144.52c31.51-6.54,67.22-11.26,93.39,7.48
						c-14.59,26.04-36.88,50.63-58.59,71.43c-0.76,0.74-1.51,1.46-2.27,2.18c-17.62,16.73-37.21,31.36-54.09,48.85
						c-45.38,47.02-68.63,114.57-61.8,179.56c-62.26-28.42-129.23-46.68-196.91-57.82C1081.41,242.06,932.53,250.17,797.46,298.18z"
						/>
					<path class="st22" d="M797.46,298.18c-26.18,9.3-51.84,20.1-76.83,32.47c1.17-0.86,2.35-1.71,3.54-2.56
						C749.95,313.37,772.48,304.23,797.46,298.18z"/>
					<path class="st15" d="M717.42,333.43c5.98,1.27,12.23,1.79,18.66,1.77c0.01,0,0.03,0,0.04,0c57.37,5.8,115.86,8.62,171.2-6.87
						c43.45-12.17,85.01-35.54,130.12-34.53l0.05-0.31c28.4,4.41,56.57,10.29,84.29,17.36c17.01,4.34,34.08,9.33,49.84,16.92
						l-0.09,0.19c-11.37-3.75-23.04-2.7-29.91-2.36c-58.76,2.89-117.26,11.02-174.58,24.27c-26.37,6.1-52.65,13.31-79.64,15.29
						c-2.79,0.2-5.59,0.36-8.41,0.45c-52.9,1.88-109.43-14.33-159.39-31.43c0-0.01-0.01-0.01-0.01-0.01
						C718.86,333.93,718.14,333.68,717.42,333.43z"/>
					<path class="st12" d="M719.6,334.18c23.93,12.92,36.9,21.68,55.67,27.9c18.9,6.27,39.76,8.82,59.66,8.08
						c14.72-0.55,29.45-1.1,44.17-1.65c12.01-0.45,24.02-0.9,36.03-1.34c13.52-0.51,27.06-1.01,40.58-0.49
						c33.03,1.29,65.5,8.7,98.39,11.98c14.81,1.48,29.7,2.11,44.59,1.91c14.97-0.21,30.17-1.32,44.21-6.51
						c17.24-6.38,32.84-18.86,51.21-19.31c5.97-0.14,10.09,0.01,21.15,5.02l0.05-0.05c11.71,11.46,22.7,23.82,34.69,34.98
						c-2.64-1.85-4.9-2.52-7.32-2.66c-2.26-0.13-4.66,0.21-7.67,0.49c-11.14,1.04-22.05,3.51-32.95,6.13
						c-10.42,2.5-20.83,5.14-31.41,6.79c-8.06,1.26-16.2,1.93-24.35,2.01c-18.44,0.23-36.92-2.52-54.48-8.16
						c-16.69-5.35-32.75-13.32-50.14-15.53c-11.71-1.49-23.52-0.3-35.25,1.39c-3.35,0.48-6.7,1.01-10.03,1.52
						c-21.69,3.36-43.46,6.35-65.3,8.64c-10.83,1.14-21.68,2.11-32.54,2.85c-7.35,0.52-14.71,0.93-22.08,1.23
						c-19.24,0.79-39.18,0.69-56.85-6.97c-9.83-4.26-43.81-19.18-52.39-24.35l-0.01,0.01c-16.56-11.22-33.04-22.85-49.58-33.45
						c-0.34-0.34-0.68-0.68-1.02-1.01c0.2-0.15,0.4-0.3,0.6-0.45l0.19,0.25C718.14,333.68,718.86,333.93,719.6,334.18
						C719.59,334.17,719.6,334.17,719.6,334.18z"/>
					
						<linearGradient id="SVGID_00000075128410641243671040000010537954342015454098_" gradientUnits="userSpaceOnUse" x1="717.01" y1="-9.913492e-11" x2="717.01" y2="1073.9507">
						<stop  offset="0" style="stop-color:#00B4D5"/>
						<stop  offset="0.0253" style="stop-color:#27BDDA"/>
						<stop  offset="0.0544" style="stop-color:#4DC5DF"/>
						<stop  offset="0.0848" style="stop-color:#6CCDE3"/>
						<stop  offset="0.1163" style="stop-color:#84D2E6"/>
						<stop  offset="0.1496" style="stop-color:#96D6E8"/>
						<stop  offset="0.1856" style="stop-color:#A0D8EA"/>
						<stop  offset="0.2295" style="stop-color:#A3D9EA"/>
					</linearGradient>
					<path style="fill:url(#SVGID_00000075128410641243671040000010537954342015454098_);" d="M717.65,334.64
						c-0.43-0.28-0.86-0.55-1.28-0.82c0.08-0.07,0.17-0.13,0.26-0.19C716.97,333.96,717.31,334.3,717.65,334.64z"/>
					
						<linearGradient id="SVGID_00000026121018413128795030000012399310234178044576_" gradientUnits="userSpaceOnUse" x1="715.67" y1="2.676" x2="715.67" y2="1068.0266">
						<stop  offset="0" style="stop-color:#00B4D5"/>
						<stop  offset="0.0253" style="stop-color:#27BDDA"/>
						<stop  offset="0.0544" style="stop-color:#4DC5DF"/>
						<stop  offset="0.0848" style="stop-color:#6CCDE3"/>
						<stop  offset="0.1163" style="stop-color:#84D2E6"/>
						<stop  offset="0.1496" style="stop-color:#96D6E8"/>
						<stop  offset="0.1856" style="stop-color:#A0D8EA"/>
						<stop  offset="0.2295" style="stop-color:#A3D9EA"/>
					</linearGradient>
					<path style="fill:url(#SVGID_00000026121018413128795030000012399310234178044576_);" d="M714.97,332.93
						c0.47,0.29,0.93,0.59,1.4,0.89c-0.16,0.12-0.31,0.23-0.47,0.35C715.59,333.76,715.27,333.35,714.97,332.93z"/>
					
						<linearGradient id="SVGID_00000041288214609829512350000017993124143183532674_" gradientUnits="userSpaceOnUse" x1="714.43" y1="7.1754" x2="714.43" y2="1058.0417">
						<stop  offset="0" style="stop-color:#00B4D5"/>
						<stop  offset="0.0253" style="stop-color:#27BDDA"/>
						<stop  offset="0.0544" style="stop-color:#4DC5DF"/>
						<stop  offset="0.0848" style="stop-color:#6CCDE3"/>
						<stop  offset="0.1163" style="stop-color:#84D2E6"/>
						<stop  offset="0.1496" style="stop-color:#96D6E8"/>
						<stop  offset="0.1856" style="stop-color:#A0D8EA"/>
						<stop  offset="0.2295" style="stop-color:#A3D9EA"/>
					</linearGradient>
					<path style="fill:url(#SVGID_00000041288214609829512350000017993124143183532674_);" d="M716.63,333.63
						c-0.09,0.06-0.18,0.12-0.26,0.19c-0.47-0.3-0.93-0.6-1.4-0.89c0-0.01-0.01-0.01-0.01-0.01c-0.24-0.33-0.48-0.67-0.71-1.03
						c-0.59-0.93-1.23-1.83-2.02-2.62C713.69,330.74,715.15,332.19,716.63,333.63z"/>
					<path class="st29" d="M340.69,150.08c4.2-2.31,8.25-5.02,12.81-6.52c5.69-1.86,11.82-1.73,17.82-1.57
						c31.69,0.83,71.92,1.82,95.4,22.85c50.34,89.92,145.55,157.28,247.95,168.87l1.23,0.46c0.16-0.12,0.31-0.23,0.47-0.35
						c0.42,0.27,0.85,0.54,1.28,0.82c11.22,10.88,22.99,21.14,35.25,30.84c-16.64,4.76-35.93,9.52-53.39,14.28l-0.13-1.44
						c-18.31-14.39-41.93-19.68-64.62-24.91c-70.51-16.26-143.66-37.62-194.89-88.72C406,230.9,377.2,181.01,340.69,150.08z"/>
					<path class="st18" d="M676.72,451.42c-29.16-13.42-57.73-28.27-84.53-44.04l-0.13-0.74c33.08-5.71,65.63-14.99,97.96-24.24
						c3.08-0.88,6.25-1.76,9.49-2.64c17.46-4.76,36.75-9.52,53.39-14.28c27.02,21.4,56.38,40.09,87.3,56.82l-0.5,0.93
						c-8.34,2.69-23.65,1.43-32.37,0.47c-18.04-1.97-36.1,2.59-53.68,7.11c-24.58,6.33-52.01,13.54-76.59,19.86L676.72,451.42z"/>
					<path class="st30" d="M207.22,153.38c3.93-0.35,7.88-0.22,11.86,0.58c8.13,1.63,15.5,5.95,23.56,7.88
						c6.21,1.47,12.66,1.49,19.05,1.5c27,0.03,55.33-0.25,79-13.26c36.51,30.93,65.31,80.82,99.18,114.61
						c51.23,51.1,124.38,72.46,194.89,88.72c22.69,5.23,46.31,10.52,64.62,24.91l0.13,1.44c-3.24,0.88-6.41,1.76-9.49,2.64
						c-32.33,9.25-64.88,18.53-97.96,24.24c-7.62,1.32-15.28,2.44-22.96,3.33l-0.13-1.12c-11.32-12.94-28.39-26.7-43.56-34.8
						c-20-10.66-42.18-16.38-63.57-23.87c-69.08-24.21-129.98-67.01-187.91-111.76c-9.51-7.35-19.05-14.84-26.74-24.08
						c-5.49-6.6-9.95-13.99-14.39-21.35C226.34,182.28,213.69,164.1,207.22,153.38z"/>
					<path class="st4" d="M129.84,630.59c9.57-5.55,18.86-11.66,28.69-16.74c45.5-23.51,105.5-24.6,156.29-18.03
						c7.74,10.88,14.71,22.68,26.22,29.14c16.89,9.49,37.9,4.48,57.1,7.05c13,1.74,25.23,7.02,37.26,12.24
						c6.31,2.74,12.7,5.53,18.06,9.82c13.26,10.63,18,28.36,26.18,43.36c3.11,5.72,6.73,11.04,11.51,15.41
						c8.05,7.37,18.62,11.29,27.63,17.45c10.65,7.29,18.97,17.6,29.68,24.8c10.73,7.22,23.35,11,35.76,14.67
						c23.64,7.01,47.29,14.02,70.93,21.02c3.86,1.14,7.29,2.89,10.45,3.37c-16.74,4.45-33.29,9.63-49.6,15.74
						c-73.31,27.46-138.45,72.53-207.28,109.82c-21.16,11.46-42.72,22.19-64.61,32.17l-0.42-0.92
						c-11.76-9.59-31.1-23.82-42.86-33.41c-16.81-13.72-34.51-28.76-40.45-49.63c-6.06-21.31,1.47-44.59-3.95-66.08
						c-2.93-11.62-9.48-21.95-15.92-32.06c-29.79-46.72-67.49-100.63-108.78-137.57L129.84,630.59z"/>
					<path class="st5" d="M548.36,411.77c6.94-0.39,13.85-1,20.74-1.8c7.68-0.89,15.34-2.01,22.96-3.33l0.13,0.74
						c26.8,15.77,55.37,30.62,84.53,44.04c25.58,11.77,51.6,22.44,77.27,31.65c5.28,1.9,10.59,3.75,15.89,5.6
						c6.35,2.21,12.7,4.43,19.05,6.64c1.62,0.56,3.23,1.13,4.85,1.69c-27.12-0.33-56.6-0.47-83.39-4.77
						c-13.75-2.2-27.37-5.3-41.22-6.73c-67.84-6.99-136.21,27.71-203.93,19.6l-0.16,0.31c-32.81-17.26-65.94-34.07-102.16-40.97
						c-38.8-7.39-87.47-8.44-111.95-39.42l-0.14-0.47c33.91-10.03,68.2-18.23,103.41-20.57c4.17-0.28,8.35-0.47,12.52-0.59
						C427.27,401.63,487.81,415.16,548.36,411.77z"/>
					<path class="st4" d="M207.22,153.38c6.47,10.72,19.12,28.9,25.58,39.61c4.44,7.36,8.9,14.75,14.39,21.35
						c7.69,9.24,17.23,16.73,26.74,24.08c57.93,44.75,118.83,87.55,187.91,111.76c21.39,7.49,43.57,13.21,63.57,23.87
						c15.17,8.1,32.24,21.86,43.56,34.8l0.13,1.12c-6.89,0.8-13.8,1.41-20.74,1.8c-60.55,3.39-121.09-10.14-181.6-8.38l-0.01-0.3
						c-38.2-22.43-98.3-37.06-138.79-55.03c-69.04-30.62-121.14-99.77-161.62-163.54c33.21-6.03,67.99-5.79,99.65-17.58
						C179.53,161.9,193.23,154.61,207.22,153.38z"/>
					<path class="st31" d="M0.38,91.87c8.75,3.96,55.28,6.32,63.67,7.92c20.5,3.91,83.44,0.01,97.6,0.28
						c52.26-1.1,54.78-8.92,107.27-8.39c89.61,0.92,145.91,8.46,227.76,44.96c28.43,12.68,54.68,28.98,79.18,47.82
						c-5.1-3.4-14.94-4.18-23.6-4.24c-4.22-0.04-8.16,0.1-11.14,0.18c-0.23,0.01-0.46,0.01-0.69,0.01
						c-24,0.59-48.12-3.66-70.48-12.43c-1.04-1.09-2.11-2.14-3.23-3.14c-23.48-21.03-63.71-22.02-95.4-22.85
						c-6-0.16-12.13-0.29-17.82,1.57c-4.56,1.5-8.61,4.21-12.81,6.52c-23.67,13.01-52,13.29-79,13.26
						c-6.39-0.01-12.84-0.03-19.05-1.5c-8.06-1.93-15.43-6.25-23.56-7.88c-3.98-0.8-7.93-0.93-11.86-0.58
						c-13.99,1.23-27.69,8.52-41.23,13.56c-31.66,11.79-66.44,11.55-99.65,17.58c-9.14,1.66-18.16,3.79-26.96,6.78
						C26.09,195.81,13.73,201.6,0,203.86V95.73c0.25-1.22,0.52-2.43,0.8-3.64L0.38,91.87z"/>
					<path class="st0" d="M469.95,167.98c22.36,8.77,46.48,13.02,70.48,12.43c0.23,0,0.46,0,0.69-0.01
						c2.98-0.08,6.92-0.22,11.14-0.18c8.66,0.06,18.5,0.84,23.6,4.24c13.97,10.75,27.36,22.33,40.26,34.54
						c35.23,33.35,66.73,71.42,96,110.16l0.01,0.01c0.03,0.03,0.07,0.07,0.1,0.1c0.79,0.79,1.43,1.69,2.02,2.62
						c0.23,0.36,0.47,0.7,0.71,1.03c0,0,0.01,0,0.01,0.01c0.3,0.42,0.62,0.83,0.93,1.24l-1.23-0.46
						c-102.4-11.59-197.61-78.95-247.95-168.87C467.84,165.84,468.91,166.89,469.95,167.98z"/>
					<path class="st18" d="M465.24,505.1c67.72,8.11,136.09-26.59,203.93-19.6c13.85,1.43,27.47,4.53,41.22,6.73
						c26.79,4.3,56.27,4.44,83.39,4.77c6.76,2.34,13.54,4.64,20.4,6.68c4.5,1.34,9.03,2.57,13.59,3.71
						c9.32,2.36,18.73,4.4,28.14,6.44c29.45,6.38,59.26,12.8,89.26,14.01l-0.03,0.57c-2.43,6.24-9.91,13.94-14.99,18.3
						c-6.07,5.2-12.13,10.4-18.2,15.6c-3.94,3.38-7.92,6.78-12.52,9.2c-4.55,2.39-9.58,3.73-14.4,5.55
						c-10.47,3.94-22.33,11.42-31.7,17.55l-0.01,1.4c-32.42-0.07-64.84-5.26-95.68-15.29c-11.15-3.62-22.08-7.88-32.74-12.75
						c-17.75-8.11-35.44-18.11-54.93-19.04c-13.61-0.64-26.98,3.22-40.48,5.03c-42.72,5.76-85.15-8.98-124.27-27.87
						c-3.97-1.93-7.92-3.89-11.82-5.88c-9.46-4.82-18.88-9.82-28.32-14.8L465.24,505.1z"/>
					<path class="st21" d="M131.73,632.21c41.29,36.94,78.99,90.85,108.78,137.57c6.44,10.11,12.99,20.44,15.92,32.06
						c5.42,21.49-2.11,44.77,3.95,66.08c5.94,20.87,23.64,35.91,40.45,49.63c11.76,9.59,31.1,23.82,42.86,33.41l0.42,0.92
						C235.6,1001.4,118.76,1032.63,0,1043.67V656.92c36.49-6.79,78.03-2.92,112.14-17.29c6.12-2.58,11.96-5.71,17.7-9.04
						L131.73,632.21z"/>
					<path class="st18" d="M0,473.05c40.22,5.4,80.86,0.2,120.69-9.32l0.19,0.79c15.22,30.66,48.65,50.88,81.09,64.54
						c3.7,1.56,7.39,3.04,11.03,4.43c35.62,13.61,73.98,26.79,97.62,56.7c1.44,1.82,2.83,3.71,4.2,5.63
						c-50.79-6.57-110.79-5.48-156.29,18.03c-9.83,5.08-19.12,11.19-28.69,16.74c-5.74,3.33-11.58,6.46-17.7,9.04
						C78.03,654,36.49,650.13,0,656.92V473.05z"/>
					<path class="st21" d="M126.53,462.3c0.97-0.24,1.94-0.48,2.91-0.73c0.98-0.24,1.95-0.49,2.92-0.75
						c1.24-0.32,2.49-0.65,3.73-0.98c0.43-0.11,0.85-0.22,1.28-0.34c0.49-0.13,0.99-0.26,1.48-0.4c1.82-0.48,3.64-0.98,5.46-1.49
						c1.82-0.51,3.63-1.02,5.44-1.54c3.85-1.09,7.69-2.22,11.52-3.37c1.92-0.58,3.83-1.16,5.74-1.74c1.14-0.35,2.28-0.7,3.42-1.04
						c0.26-0.08,0.51-0.16,0.77-0.24c1.49-0.46,2.98-0.93,4.46-1.39c2.31-0.72,4.63-1.45,6.94-2.19
						c22.69-7.2,45.38-14.79,68.23-21.55l0.14,0.47c24.48,30.98,73.15,32.03,111.95,39.42c36.22,6.9,69.35,23.71,102.16,40.97
						c9.44,4.98,18.86,9.98,28.32,14.8c3.9,1.99,7.85,3.95,11.82,5.88l-0.07,0.14c-26.63,0.55-55.21-2.4-80.84-9.63
						c-11.89-3.35-23.63-7.53-35.89-8.98c-12.46-1.47-25.07-0.07-37.51,1.65c-22.63,3.14-45.11,7.37-67.34,12.66
						c-26.8,6.38-56.32,17.14-81.44,6.75l-0.16,0.38c-32.44-13.66-65.87-33.88-81.09-64.54l-0.19-0.79
						C122.64,463.26,124.59,462.79,126.53,462.3z"/>
					<path class="st30" d="M-2.81,204.28c0.94-0.11,1.88-0.25,2.81-0.42c13.73-2.26,26.09-8.05,39.38-12.56
						c8.8-2.99,17.82-5.12,26.96-6.78c40.48,63.77,92.58,132.92,161.62,163.54c40.49,17.97,100.59,32.6,138.79,55.03l0.01,0.3
						c-4.17,0.12-8.35,0.31-12.52,0.59c-35.21,2.34-69.5,10.54-103.41,20.57c-22.85,6.76-45.54,14.35-68.23,21.55l-0.2-0.61
						c-17.7-30.27-53.04-47.42-81.87-67.37c-27.86-19.28-52.36-43.39-72.08-70.94c-7.49-10.46-14.39-21.62-17.76-34.04
						C5.15,252.74,7.32,222.84-2.81,204.28L-2.81,204.28z"/>
					<path class="st30" d="M213,533.49c-3.64-1.39-7.33-2.87-11.03-4.43l0.16-0.38c25.12,10.39,54.64-0.37,81.44-6.75
						c22.23-5.29,44.71-9.52,67.34-12.66c12.44-1.72,25.05-3.12,37.51-1.65c12.26,1.45,24,5.63,35.89,8.98
						c25.63,7.23,54.21,10.18,80.84,9.63l0.07-0.14c39.12,18.89,81.55,33.63,124.27,27.87c13.5-1.81,26.87-5.67,40.48-5.03
						c19.49,0.93,37.18,10.93,54.93,19.04c10.66,4.87,21.59,9.13,32.74,12.75l-0.56,1.73c-28.74,15.75-69.06-1.43-94.94,18.68
						c-11.49,8.92-17.16,23.26-26.2,34.67c-18.65,23.54-49.69,32.64-78.7,40.44c-26.24,7.07-51.35,14.13-77.6,21.19
						c-8.18-15-12.92-32.73-26.18-43.36c-5.36-4.29-11.75-7.08-18.06-9.82c-12.03-5.22-24.26-10.5-37.26-12.24
						c-19.2-2.57-40.21,2.44-57.1-7.05c-11.51-6.46-18.48-18.26-26.22-29.14c-1.37-1.92-2.76-3.81-4.2-5.63
						C286.98,560.28,248.62,547.1,213,533.49z"/>
					<path class="st4" d="M74.86,471.8c1-0.13,2-0.26,3-0.4C76.86,471.54,75.86,471.67,74.86,471.8z"/>
					<path class="st4" d="M70.9,472.29c0.89-0.1,1.78-0.21,2.67-0.33C72.68,472.08,71.79,472.19,70.9,472.29z"/>
					<path class="st4" d="M62.01,473.25c0.62-0.05,1.23-0.11,1.84-0.18C63.24,473.14,62.63,473.2,62.01,473.25z"/>
					<path class="st4" d="M53.37,473.98c0.5-0.04,1.01-0.08,1.51-0.12C54.38,473.91,53.88,473.94,53.37,473.98z"/>
					
						<linearGradient id="SVGID_00000165226602308652640220000002300873072513650075_" gradientUnits="userSpaceOnUse" x1="960" y1="-9.094947e-13" x2="960" y2="1073.9506">
						<stop  offset="0" style="stop-color:#00B4D5"/>
						<stop  offset="0.0253" style="stop-color:#27BDDA"/>
						<stop  offset="0.0544" style="stop-color:#4DC5DF"/>
						<stop  offset="0.0848" style="stop-color:#6CCDE3"/>
						<stop  offset="0.1163" style="stop-color:#84D2E6"/>
						<stop  offset="0.1496" style="stop-color:#96D6E8"/>
						<stop  offset="0.1856" style="stop-color:#A0D8EA"/>
						<stop  offset="0.2295" style="stop-color:#A3D9EA"/>
					</linearGradient>
					<path style="fill:url(#SVGID_00000165226602308652640220000002300873072513650075_);" d="M0,95.73V0h1920v276.1
						c-10.45-2.11-20.74-4.97-30.87-8.48c-69.96-24.12-132.39-78.47-185.64-129.25c-38.54-36.73-75.23-74.02-106.47-117.13
						c-26.17-18.74-61.88-14.02-93.39-7.48c-149.47,31.02-292.73,84.35-433.36,144.52c-40.09-9.18-84.47-20.27-124.56-29.45
						c-18.24-4.18-36.96-8.38-55.49-5.82c-18.52,2.57-35.39,11.69-51.63,20.95c-33.65,19.2-66.68,39.74-102.2,55.2
						c-35.51,15.46-81.62,22.39-120.27,19.84c-12.9-12.21-26.29-23.79-40.26-34.54c-24.5-18.84-50.75-35.14-79.18-47.82
						c-81.85-36.5-138.15-44.04-227.76-44.96c-52.49-0.53-55.01,7.29-107.27,8.39c-14.16-0.27-77.1,3.63-97.6-0.28
						c-8.39-1.6-54.92-3.96-63.67-7.92l0.42,0.22C0.52,93.3,0.25,94.51,0,95.73z"/>
					<path class="st33" d="M-2.86,153.33c1.02-9.64-0.01-19.36-0.03-29.06c-0.03-9.58,0.95-19.16,2.89-28.54v108.13
						c-0.93,0.17-1.87,0.31-2.81,0.42c-0.02,0.01-0.03,0.01-0.05,0.01c-1.54-2.35-2.34-5.03-2.75-7.82
						c-0.41-2.79-0.45-5.69-0.45-8.5c-0.01-6.03-0.02-12.08,0.69-18.06C-4.72,164.36-3.45,158.89-2.86,153.33z"/>
					<path class="st4" d="M-2.86,204.29c0.02,0,0.03,0,0.05-0.01v0.01c10.13,18.55,7.96,48.45,13.5,68.85
						c3.37,12.42,10.27,23.58,17.76,34.04c19.72,27.55,44.22,51.66,72.08,70.94c28.83,19.95,64.17,37.1,81.87,67.37l0.2,0.61
						c-2.31,0.74-4.63,1.47-6.94,2.19c-1.48,0.46-2.97,0.93-4.46,1.39c-1.4,0.43-2.79,0.85-4.19,1.28c-2.9,0.87-5.82,1.74-8.75,2.59
						c-1.46,0.43-2.93,0.85-4.4,1.27c-1.38,0.4-2.75,0.78-4.13,1.17c-1.12,0.31-2.23,0.62-3.35,0.93c-0.7,0.19-1.39,0.38-2.09,0.57
						c-1.65,0.45-3.31,0.89-4.97,1.32c-0.79,0.21-1.59,0.42-2.39,0.63c-1.94,0.5-3.89,1-5.84,1.48c-1.34,0.34-2.69,0.67-4.05,1
						c-1.5,0.36-3.01,0.72-4.52,1.07c-1.51,0.36-3.02,0.7-4.53,1.04c-1.52,0.35-3.03,0.68-4.55,1.01c-1.49,0.32-2.99,0.64-4.49,0.96
						c-0.02,0-0.04,0.01-0.06,0.01c-1.52,0.31-3.05,0.62-4.57,0.92c-1.37,0.28-2.74,0.54-4.11,0.8c-1.68,0.32-3.36,0.63-5.04,0.93
						c-1.53,0.27-3.06,0.54-4.59,0.79c-1.53,0.26-3.06,0.51-4.59,0.75c-1.3,0.21-2.61,0.41-3.91,0.6c-1.41,0.21-2.81,0.41-4.22,0.6
						c-1,0.14-2,0.27-3,0.4c-0.15,0.02-0.31,0.04-0.46,0.06c-0.28,0.04-0.56,0.07-0.83,0.1c-0.89,0.12-1.78,0.23-2.67,0.33
						c-0.8,0.1-1.61,0.2-2.42,0.29c-0.57,0.06-1.14,0.13-1.7,0.19c-0.97,0.11-1.95,0.21-2.93,0.3c-0.61,0.07-1.22,0.13-1.84,0.18
						c-0.03,0-0.05,0.01-0.08,0.01c-0.9,0.09-1.79,0.17-2.69,0.24c-0.02,0.01-0.05,0.01-0.07,0.01c-0.26,0.03-0.52,0.05-0.78,0.07
						c-0.11,0.02-0.21,0.02-0.31,0.03c-1.07,0.09-2.13,0.18-3.2,0.25c-0.5,0.04-1.01,0.08-1.51,0.12c-0.09,0.01-0.18,0.01-0.27,0.02
						c-1.08,0.08-2.17,0.15-3.26,0.21c-0.26,0.02-0.52,0.03-0.77,0.05c-1.29,0.07-2.58,0.14-3.87,0.2
						c-0.25,0.01-0.49,0.02-0.73,0.04c-1.47,0.06-2.94,0.12-4.41,0.16c-1.53,0.05-3.05,0.08-4.58,0.1
						c-1.52,0.03-3.04,0.04-4.56,0.04c-10.59,0-21.11-0.58-31.49-1.83c-1.05-0.14-2.1-0.29-3.15-0.45L-2.86,204.29z"/>
				</g>
				<g>
					<path class="st34" d="M167.01,450.96c-1.91,0.58-3.82,1.16-5.74,1.74c-3.82,1.14-7.66,2.27-11.52,3.37
						c-1.81,0.52-3.63,1.03-5.44,1.54c-1.82,0.5-3.64,1-5.46,1.49c-0.49,0.14-0.99,0.27-1.48,0.4c-0.43,0.11-0.85,0.23-1.28,0.34
						c-1.24,0.33-2.49,0.66-3.73,0.98c-0.97,0.26-1.94,0.5-2.92,0.75c-0.97,0.25-1.94,0.49-2.91,0.73
						c-1.94,0.49-3.89,0.96-5.84,1.43C80.86,473.25,40.22,478.45,0,473.05v183.87v386.75V1080h1149.96h45.27h0.69h354.31H1920
						v-72.89v-86.72v-47.64v-78.47v-44.51V619.88V493.41V363.64V276.1V0H0v95.73"/>
					<path class="st34" d="M1597.02,21.24c-26.17-18.74-61.88-14.02-93.39-7.48c-149.47,31.02-292.73,84.35-433.36,144.52
						c-65.11,27.86-129.66,57.19-194,86.44c-50.5,22.96-106.49,50.58-152.1,83.37c-1.19,0.85-2.37,1.7-3.54,2.56
						c-1.14,0.84-2.28,1.68-3.4,2.53c-0.2,0.15-0.4,0.3-0.6,0.45c-0.09,0.06-0.18,0.12-0.26,0.19"/>
					<path class="st34" d="M719.33,331.29c0.43-0.22,0.86-0.43,1.3-0.64c24.99-12.37,50.65-23.17,76.83-32.47
						c135.07-48.01,283.95-56.12,425.9-32.74c67.68,11.14,134.65,29.4,196.91,57.82c19.04,8.7,37.64,18.35,55.69,29.03
						c32.52,19.24,62.88,41.62,92.47,65.13c38.64,30.72,75.96,63.37,115.05,93.53c68.14,52.56,150.93,99.69,236.52,108.93
						c1.09,0.12,2.18,0.23,3.28,0.34"/>
					<path class="st34" d="M1070.27,158.28c-40.09-9.18-84.47-20.27-124.56-29.45c-18.24-4.18-36.96-8.38-55.49-5.82
						c-18.52,2.57-35.39,11.69-51.63,20.95c-33.65,19.2-66.68,39.74-102.2,55.2c-35.51,15.46-81.62,22.39-120.27,19.84"/>
					<path class="st34" d="M717.65,334.64c-0.34-0.34-0.68-0.68-1.02-1.01c-1.48-1.44-2.94-2.89-4.4-4.36"/>
					<path class="st34" d="M716.37,333.82c-0.47-0.3-0.93-0.6-1.4-0.89"/>
					<path class="st34" d="M1466.4,628.5c9.08,7.24,16.7,15.56,21.31,25.18c0.74,1.54,1.4,3.12,1.97,4.74
						c1.73,4.79,2.72,9.9,2.79,15.33c0.12,9.01-2.41,17.54-6.32,25.64c-4.56,9.47-10.99,18.36-17.27,26.81
						c-2.04,2.74-4.09,5.49-6.14,8.24c-17.07,22.79-34.85,45.56-55.49,64.76c-12.53,11.65-26.11,21.99-41.22,30.21
						c-3.96,2.15-7.99,4.14-12.08,6.03c-15.44,7.16-31.55,12.93-46.69,20.74c-13.48,6.96-26.04,15.48-38.13,24.66
						c-6.92,5.26-13.68,10.73-20.37,16.26c-27.25,22.52-54.17,46.87-70.54,78.2c-4.58,8.76-8.24,17.9-11.3,27.28
						c-6.02,18.52-9.65,37.96-13.21,57.17c-1.25,6.75-2.49,13.5-3.75,20.25c-0.31,1.68-0.62,3.36-0.93,5.04
						c-0.03,0.12-0.05,0.24-0.07,0.36"/>
					<path class="st34" d="M1459.61,623.45c2.33,1.62,4.6,3.3,6.78,5.04"/>
					<path class="st34" d="M1266.65,539.14c24.61,7.03,49.03,13.96,72.47,24.94c6.54,3.06,13.08,6.13,19.62,9.19
						c22.69,10.63,45.37,21.26,68.06,31.89c10.94,5.13,22.49,11.13,32.79,18.28"/>
					<path class="st34" d="M1046,482.92c25.55,6.94,51.69,13.15,78.13,17.49c15.07,2.47,30.05,5.8,44.93,9.65
						c21.81,5.64,43.39,12.41,64.7,19.28c10.93,3.53,21.89,6.66,32.81,9.77"/>
					<path class="st34" d="M717.65,334.64c16.54,10.6,33.02,22.23,49.58,33.45c18.05,12.24,36.2,24.01,54.62,33.46
						c50.29,25.81,92.12,42.28,151.3,60.08c23.52,7.07,47.87,14.52,72.81,21.28"/>
					<path class="st34" d="M0,473.05c-0.19-0.02-0.38-0.05-0.57-0.08c-1.05-0.14-2.1-0.29-3.15-0.45c-0.61-0.09-1.22-0.18-1.83-0.28
						"/>
					<path class="st34" d="M699.38,378.32c-18.31-14.39-41.93-19.68-64.62-24.91c-70.51-16.26-143.66-37.62-194.89-88.72
						C406,230.9,377.2,181.01,340.69,150.08"/>
					<path class="st34" d="M568.97,408.85c-11.32-12.94-28.39-26.7-43.56-34.8c-20-10.66-42.18-16.38-63.57-23.87
						c-69.08-24.21-129.98-67.01-187.91-111.76c-9.51-7.35-19.05-14.84-26.74-24.08c-5.49-6.6-9.95-13.99-14.39-21.35
						c-6.46-10.71-19.11-28.89-25.58-39.61"/>
					<path class="st34" d="M366.75,403.09c-38.2-22.43-98.3-37.06-138.79-55.03c-69.04-30.62-121.14-99.77-161.62-163.54"/>
					<path class="st34" d="M182.4,445.49c-17.7-30.27-53.04-47.42-81.87-67.37c-27.86-19.28-52.36-43.39-72.08-70.94
						c-7.49-10.46-14.39-21.62-17.76-34.04c-5.54-20.4-3.37-50.3-13.5-68.85"/>
					<path class="st34" d="M250.97,425.02c24.48,30.98,73.15,32.03,111.95,39.42c36.22,6.9,69.35,23.71,102.16,40.97
						c9.44,4.98,18.86,9.98,28.32,14.8c3.9,1.99,7.85,3.95,11.82,5.88c39.12,18.89,81.55,33.63,124.27,27.87
						c13.5-1.81,26.87-5.67,40.48-5.03c19.49,0.93,37.18,10.93,54.93,19.04c10.66,4.87,21.59,9.13,32.74,12.75
						c30.84,10.03,63.26,15.22,95.68,15.29c8.17,0.02,16.34-0.28,24.48-0.92c17.1-1.33,34.7-4.03,51.09,1.03
						c11.07,3.42,20.78,10.17,31.43,14.72c46.87,20.03,101.06-5.31,151.45,2.36c38.23,5.82,80.93,29.34,117.38,16.42"/>
					<path class="st34" d="M465.24,505.1c67.72,8.11,136.09-26.59,203.93-19.6c13.85,1.43,27.47,4.53,41.22,6.73
						c26.79,4.3,56.27,4.44,83.39,4.77"/>
					<path class="st34" d="M592.19,407.38c26.8,15.77,55.37,30.62,84.53,44.04c25.58,11.77,51.6,22.44,77.27,31.65
						c5.28,1.9,10.59,3.75,15.89,5.6c6.35,2.21,12.7,4.43,19.05,6.64c1.62,0.56,3.23,1.13,4.85,1.69c6.76,2.34,13.54,4.64,20.4,6.68
						c4.5,1.34,9.03,2.57,13.59,3.71c9.32,2.36,18.73,4.4,28.14,6.44c29.45,6.38,59.26,12.8,89.26,14.01
						c7.73,0.31,15.48,0.27,23.23-0.2c12.86-0.78,25.68-2.76,38.56-2.42c28.53,0.77,60.33,11.72,86.11-0.54"/>
					<path class="st34" d="M853.33,594.61c9.37-6.13,21.23-13.61,31.7-17.55c4.82-1.82,9.85-3.16,14.4-5.55
						c4.6-2.42,8.58-5.82,12.52-9.2c6.07-5.2,12.13-10.4,18.2-15.6c5.08-4.36,12.56-12.06,14.99-18.3"/>
					<path class="st34" d="M677.06,450.67c24.58-6.32,52.01-13.53,76.59-19.86c17.58-4.52,35.64-9.08,53.68-7.11
						c8.72,0.96,24.03,2.22,32.37-0.47"/>
					<path class="st34" d="M827.9,506.88c21.56-6.83,45.89-4.59,68.29-7.69c24.59-3.41,59.1-16.48,83.88-15.01"/>
					<path class="st34" d="M120.88,464.52c15.22,30.66,48.65,50.88,81.09,64.54c3.7,1.56,7.39,3.04,11.03,4.43
						c35.62,13.61,73.98,26.79,97.62,56.7c1.44,1.82,2.83,3.71,4.2,5.63c7.74,10.88,14.71,22.68,26.22,29.14
						c16.89,9.49,37.9,4.48,57.1,7.05c13,1.74,25.23,7.02,37.26,12.24c6.31,2.74,12.7,5.53,18.06,9.82
						c13.26,10.63,18,28.36,26.18,43.36c3.11,5.72,6.73,11.04,11.51,15.41c8.05,7.37,18.62,11.29,27.63,17.45
						c10.65,7.29,18.97,17.6,29.68,24.8c10.73,7.22,23.35,11,35.76,14.67c23.64,7.01,47.29,14.02,70.93,21.02
						c3.86,1.14,7.29,2.89,10.45,3.37"/>
					<path class="st34" d="M198.93,527.23c1.06,0.53,2.13,1.01,3.2,1.45c25.12,10.39,54.64-0.37,81.44-6.75
						c22.23-5.29,44.71-9.52,67.34-12.66c12.44-1.72,25.05-3.12,37.51-1.65c12.26,1.45,24,5.63,35.89,8.98
						c25.63,7.23,54.21,10.18,80.84,9.63"/>
					<path class="st34" d="M479.64,697.43c26.25-7.06,51.36-14.12,77.6-21.19c29.01-7.8,60.05-16.9,78.7-40.44
						c9.04-11.41,14.71-25.75,26.2-34.67c25.88-20.11,66.2-2.93,94.94-18.68"/>
					<path class="st34" d="M314.82,595.82c-50.79-6.57-110.79-5.48-156.29,18.03c-9.83,5.08-19.12,11.19-28.69,16.74
						c-5.74,3.33-11.58,6.46-17.7,9.04C78.03,654,36.49,650.13,0,656.92c-0.62,0.11-1.24,0.23-1.86,0.35l-14.29,387.78
						c2.86-0.22,5.71-0.46,8.57-0.7c2.53-0.22,5.05-0.45,7.58-0.68c118.76-11.04,235.6-42.27,344.11-91.79
						c21.89-9.98,43.45-20.71,64.61-32.17c68.83-37.29,133.97-82.36,207.28-109.82c16.31-6.11,32.86-11.29,49.6-15.74
						c81.77-21.74,168.07-26.05,252.55-35.92c101.78-11.88,207.23-34.32,286.3-99.5c9.86-8.12,19.63-17.67,25.02-28.95
						c2.16-4.51,3.61-9.29,4.1-14.37c3.09-32.51-32.89-53.47-63.58-64.63c-25.03-9.11-50.71-17.92-76.68-26.8
						c-37.52-12.82-75.63-25.74-113.24-39.8c-48.24-18.04-95.64-37.95-139.87-61.88c-30.92-16.73-60.28-35.42-87.3-56.82"/>
					<path class="st34" d="M131.73,632.21c41.29,36.94,78.99,90.85,108.78,137.57c6.44,10.11,12.99,20.44,15.92,32.06
						c5.42,21.49-2.11,44.77,3.95,66.08c5.94,20.87,23.64,35.91,40.45,49.63c11.76,9.59,31.1,23.82,42.86,33.41"/>
					<path class="st34" d="M1597.02,21.24c-14.59,26.04-36.88,50.63-58.59,71.43c-0.76,0.74-1.51,1.46-2.27,2.18
						c-17.62,16.73-37.21,31.36-54.09,48.85c-45.38,47.02-68.63,114.57-61.8,179.56"/>
					<path class="st34" d="M1539.05,93.32c9.1,34.81,26.8,75.14,48.79,103.61c13.95,18.07,30.19,34.34,43.19,53.1
						c18.01,25.98,32.44,58.98,60.13,74.23"/>
					<path class="st34" d="M1583.11,397.52c0.27-0.29,0.54-0.58,0.83-0.87c15.91-16.91,35.51-29.87,54.91-42.67
						c0.6-0.39,1.19-0.79,1.79-1.18c16.17-10.66,32.61-21.29,50.69-28.07c1.75-0.65,3.5-1.27,5.28-1.85
						c17.94-5.84,36.92-7.47,55.58-10.25c22.93-3.41,47-9.5,70.52-17.29c23.11-7.65,45.7-16.93,66.15-26.93"/>
					<path class="st34" d="M1823.07,296.43c19.78,36.91,64.39,41.29,96.93,67.21c0.99,0.78,1.97,1.59,2.94,2.42l-0.57-89.48
						c-0.79-0.15-1.58-0.31-2.37-0.48c-10.45-2.11-20.74-4.97-30.87-8.48c-69.96-24.12-132.39-78.47-185.64-129.25
						c-38.54-36.73-75.23-74.02-106.47-117.13"/>
					<path class="st34" d="M1641.04,353.41c76.62,34.04,83.92,28.27,142.39,88.36c17.21,17.69,107.83,42.25,136.57,51.64
						c1.21,0.4,2.3,0.77,3.28,1.11"/>
					<path class="st34" d="M1583.56,396.29c-6.4,5.92-11.57,13.16-15.13,21.13c-0.12,0.25-0.23,0.5-0.34,0.76"/>
					<path class="st34" d="M736.12,335.2c57.37,5.8,115.86,8.62,171.2-6.87c43.45-12.17,85.01-35.54,130.12-34.53"/>
					<path class="st34" d="M720.71,333.58c5.11,0.56,10.23,1.1,15.37,1.62"/>
					<path class="st34" d="M717.42,333.43c5.98,1.27,12.23,1.79,18.66,1.77c0.01,0,0.03,0,0.04,0c23.64-0.08,49.45-7.59,71.18-13.27
						c45-11.76,92.18-25.41,137.18-37.17"/>
					<path class="st34" d="M719.6,334.18c49.96,17.1,106.49,33.31,159.39,31.43c2.82-0.09,5.62-0.25,8.41-0.45
						c26.99-1.98,53.27-9.19,79.64-15.29c57.32-13.25,115.82-21.38,174.58-24.27c6.87-0.34,18.54-1.39,29.91,2.36"/>
					<path class="st34" d="M717.42,333.43c0.72,0.25,1.44,0.5,2.17,0.74"/>
					<path class="st34" d="M719.59,334.17C719.59,334.17,719.6,334.17,719.59,334.17c23.94,12.93,36.91,21.69,55.68,27.91
						c18.9,6.27,39.76,8.82,59.66,8.08c14.72-0.55,29.45-1.1,44.17-1.65c12.01-0.45,24.02-0.9,36.03-1.34
						c13.52-0.51,27.06-1.01,40.58-0.49c33.03,1.29,65.5,8.7,98.39,11.98c14.81,1.48,29.7,2.11,44.59,1.91
						c14.97-0.21,30.17-1.32,44.21-6.51c17.24-6.38,32.84-18.86,51.21-19.31c5.97-0.14,10.09,0.01,21.15,5.02"/>
					<path class="st34" d="M767.24,368.08c8.58,5.17,42.56,20.09,52.39,24.35c17.67,7.66,37.61,7.76,56.85,6.97
						c7.37-0.3,14.73-0.71,22.08-1.23c10.86-0.74,21.71-1.71,32.54-2.85c21.84-2.29,43.61-5.28,65.3-8.64
						c3.33-0.51,6.68-1.04,10.03-1.52c11.73-1.69,23.54-2.88,35.25-1.39c17.39,2.21,33.45,10.18,50.14,15.53
						c17.56,5.64,36.04,8.39,54.48,8.16c8.15-0.08,16.29-0.75,24.35-2.01c10.58-1.65,20.99-4.29,31.41-6.79
						c10.9-2.62,21.81-5.09,32.95-6.13c3.01-0.28,5.41-0.62,7.67-0.49c2.42,0.14,4.68,0.81,7.32,2.66"/>
					<path class="st34" d="M892.83,398.35c2-0.13,3.9-0.18,5.73-0.18c16.42,0.06,26.46,5.35,40.31,12.07
						c27.34,13.28,55.16,26.89,77.1,47.93c9.4,9.03,18.17,19.68,29.99,24.74c0.01,0.01,0.03,0.02,0.04,0.01
						c1.09,0.48,2.21,0.9,3.35,1.26"/>
					<path class="st34" d="M931.1,395.33c78.34,0.28,148.92,40.21,205.06,94.85c8.66,8.42,21.63,15.3,33.01,19.43"/>
					<path class="st34" d="M1006.43,385.16c12.21-0.95,24.11,1.28,35.7,3.76c14.24,3.05,26.83,8.01,39.5,14.98
						c8.44,4.65,11.32,6.49,19.53,12.69c18.67,14.09,31.98,34.13,47.97,51.2c20.87,22.27,56.56,51.34,86.03,60.64
						c0.47,0.15,0.94,0.29,1.4,0.43"/>
					<path class="st34" d="M1146.31,408.55c11.04,8.72,18.09,21.4,24.86,33.73c7.06,12.88,14.13,25.76,21.19,38.64
						c4.43,8.07,8.88,16.18,14.59,23.4c7.68,9.71,17.62,17.6,28.75,23.01c5.03,2.45,10.31,4.39,15.74,5.77
						c0.54,0.14,1.07,0.27,1.61,0.39"/>
					<path class="st34" d="M1202.27,399.55c5.92,4.87,7.31,13.26,7.94,20.9c1.82,22.13,0.66,44.69,6.16,66.19
						c4.99,19.45,16.99,38.61,35.07,46.46c1.9,0.83,3.87,1.53,5.91,2.09"/>
					<path class="st34" d="M1242.68,392.04c2.12,8.29-1.25,19.84-4.43,27.79c-1.77,4.43-3.35,8.92-4.7,13.49
						c-1.44,4.78-2.64,9.62-3.61,14.51c-2.47,12.44-3.39,25.39-1.67,37.91c0.69,5.1,1.83,10.14,3.49,15.04
						c3.93,11.62,11.02,22.41,20.49,30.06c1.73,1.39,3.54,2.69,5.42,3.85c2.81,1.76,5.78,3.24,8.9,4.42
						c0.03,0.01,0.05,0.02,0.08,0.03"/>
					<path class="st34" d="M1233.81,433.4c5,15.51,21.56,23.91,37.07,28.91c21.55,6.94,44.17,10.59,66.82,10.77
						c22.03,0.17,33.05,0.29,56.34,6.5"/>
					<path class="st34" d="M1228.26,485.73c0,0,0.01,0,0.01,0.01c21.33,12.63,50.6,14.99,75.11,11.26s47.39-16.39,72.13-17.96
						c7.47-0.47,6.12-0.71,9.09-0.38c1.1,0.11,2.8,0.3,5.76,0.58c1.06,0.1,2.27,0.22,3.68,0.34"/>
					<path class="st34" d="M1251.44,530.88c0.27-0.01,0.54-0.02,0.81-0.04c37.46-1.57,74.33-15.1,103.94-38.11
						c8.67-6.75,17.12-13.94,28.41-14.07c1.75-0.02,3.57,0.12,5.47,0.47"/>
					<path class="st34" d="M1394.04,479.58c-1.17-0.21-2.41-0.32-3.68-0.34c-7.94-0.18-17.43,3-23.08,7.83
						c-6.56,5.6-11.11,13.19-14.73,21.02c-4.89,10.54-8.34,22.02-7.85,33.64c0.49,11.61,5.32,23.39,14.53,30.49"/>
					<path class="st34" d="M1394.04,479.58c-22.72,20.04-22.87,49.74-11.31,70.88c13.42,24.55,42.1,36.15,61.31,56.48
						c4.86,5.14,9.73,11.38,15.55,16.5c0.01,0.01,0.01,0.01,0.02,0.01c2.12,1.87,4.36,3.58,6.78,5.04c0,0.01,0.01,0.01,0.01,0.01"/>
					<path class="st34" d="M1394.04,479.58c-4.76,6.39-3.12,15.44-0.25,22.88c15.97,41.32,60.21,65.18,81.31,104.13
						c6.8,12.55,11.03,26.49,12.35,40.71"/>
					<path class="st34" d="M1435.8,487.81c6.46,15.01,17.05,30.84,24.88,45.18c9.62,17.62,16.81,36.55,21.41,56.1
						c2.05,8.71,3.58,17.55,4.58,26.45c1.2,10.54,1.65,21.16,1.33,31.77c-0.06,2.12-0.16,4.25-0.29,6.37
						c-0.01,0.37-0.04,0.73-0.06,1.1"/>
					<path class="st34" d="M1482.29,590.43c-0.07-0.45-0.14-0.9-0.2-1.34c-6.65-44.12-4.16-56.07-1.32-68.29
						c1.39-6,7.94-14.44,14.06-15.15"/>
					<path class="st34" d="M1487.02,615.5c0.43-27.61-4.55-42.2-4-55.94c0.55-13.75,6.67-29.14,19.8-33.24
						c10.68-3.33,21.88,1.9,32.77,4.46c6.81,1.6,20.16,2.24,29.51,1.77c2.16-0.11,4.1-0.28,5.7-0.51"/>
					<path class="st34" d="M1489.5,658.71c0.06-0.1,0.12-0.19,0.18-0.29c12.06-19.14,19.19-41.36,20.5-63.95
						c0.63-10.74-0.02-21.65,2.32-32.15c2.34-10.51,8.39-20.95,18.35-25.04c4.82-1.98,10.14-2.32,15.35-2.62
						c5.49-0.33,12.62-1.41,18.9-2.11c2.02-0.22,3.94-0.4,5.7-0.51"/>
					<path class="st34" d="M1515.47,668c4.74-13.01,8.34-26.38,11.73-39.81c4.9-19.41,11.28-39.02,23.9-54.56
						c12.6-15.53,37.49-26.93,57.22-23.66c0.01,0.01,0.03,0.01,0.04,0.01"/>
					<path class="st34" d="M1486.34,699.48c11.29-6.69,24.08-21.7,28.14-29.32c0.42-0.79,0.75-1.49,0.97-2.1"/>
					<path class="st34" d="M1514.48,670.16c0.31-0.7,0.64-1.4,0.97-2.1c0-0.02,0.01-0.04,0.02-0.06
						c11.15-23.77,28.72-42.89,50.39-57.89c21.33-14.77,47.46-24.9,61.28-46.87"/>
					<path class="st34" d="M1462.74,734.44c28.82-34.12,72.56-54.83,114.09-65.99c41.54-11.16,85.98-20.58,117.46-49.88"/>
					<path class="st34" d="M1430.05,780.61c32.38-43.06,82.16-71.1,134.57-83.6c52.41-12.49,107.43-10.39,160.53-1.27
						c22.65,3.89,45.35,9.05,68.31,8.2"/>
					<path class="st34" d="M1404.88,801.53c0.8-0.76,1.6-1.52,2.42-2.27c1.72-1.58,3.49-3.12,5.28-4.62
						c5.72-4.78,11.76-9.14,18.07-13.09c20.63-12.93,44.08-21.55,67.99-26.48c34.62-7.12,70.36-6.89,105.6-4.15
						c15.35,1.2,30.74,2.87,46.11,2.67c3.95-0.04,7.89-0.21,11.84-0.55c23.24-1.97,45.59-9.52,67.67-17.02
						c25.57-8.67,51.13-17.34,76.69-26.01"/>
					<path class="st34" d="M1916.03,750.88c-25.01,6.41-51.18,6.05-76.98,5.64c-62.9-0.98-125.8-1.95-188.7-2.93
						c-2.84-0.04-5.69-0.09-8.53-0.13"/>
					<path class="st34" d="M1412.93,795.06c18.21-11.44,40.84-12.82,62.34-12.57c36.64,0.41,73.24,4.6,109.03,12.48
						c75.86,16.68,152.28,50.06,228.29,34.07c17.02-3.58,33.41-9.58,49.74-15.55c15.86-5.81,40.56-13.18,57.67-19.21
						c1.29-0.45,2.54-0.9,3.74-1.34"/>
					<path class="st34" d="M1354.07,835.7c76.25-19.97,156.32,0.64,234.64,9.52c63.58,7.2,128.25,6.63,190.69,20.6
						c22.93,5.14,45.49,12.22,68.8,15.2c17.66,2.26,36.1,1.52,53.45-2.5c4.3-1,8.54-2.22,12.67-3.75c1.52-0.56,3.7-1.18,5.68-2.02
						c1.75-0.74,3.34-1.64,4.22-2.84c0.22-0.29,0.41-0.62,0.58-0.98c1.64-3.48,1.21-9.64,1.38-13.04
						c0.26-5.39,0.16-10.79-0.08-16.17c-0.72-15.58-2.83-31.16-2.04-46.76c0.03-0.67,0.07-1.34,0.11-2.01"/>
					<path class="st34" d="M1269.92,881.87c27.08-2.56,54.26,2.15,81.05,6.84c26.84,4.69,53.68,9.39,80.52,14.09
						c93.08,16.29,188.05,32.62,281.55,19c34.75-5.06,69.35-14.26,104.4-12.17c31.66,1.88,70.29,11.86,102.56,10.76
						c0.74-0.02,1.48-0.05,2.21-0.08c0.73-0.04,1.45-0.08,2.18-0.13c0.05,0,0.1-0.01,0.15-0.01"/>
					<path class="st34" d="M1168.45,1003.08c21.58-17.89,55.83-18.89,83.79-16.84c113.09,8.27,225.34,41.43,338.07,29.23
						c54.14-5.85,32.45-21.15,86.32-29.09c53.6-7.91,91.35,22.74,243.37,20.73c0.79-0.01,1.58-0.02,2.37-0.03"/>
					<path class="st34" d="M575.86,184.46c13.97,10.75,27.36,22.33,40.26,34.54c35.23,33.35,66.73,71.42,96,110.16l0.01,0.01
						c0.03,0.03,0.07,0.07,0.1,0.1c0.79,0.79,1.43,1.69,2.02,2.62c0.23,0.36,0.47,0.7,0.71,1.03c0,0,0.01,0,0.01,0.01
						c0.3,0.42,0.62,0.83,0.93,1.24"/>
					<path class="st34" d="M0,203.86V95.73c0.25-1.22,0.52-2.43,0.8-3.64l-0.42-0.22c8.75,3.96,55.28,6.32,63.67,7.92
						c20.5,3.91,83.44,0.01,97.6,0.28c52.26-1.1,54.78-8.92,107.27-8.39c89.61,0.92,145.91,8.46,227.76,44.96
						c28.43,12.68,54.68,28.98,79.18,47.82c-5.1-3.4-14.94-4.18-23.6-4.24c-4.22-0.04-8.16,0.1-11.14,0.18
						c-0.23,0.01-0.46,0.01-0.69,0.01c-24,0.59-48.12-3.66-70.48-12.43c-1.04-1.09-2.11-2.14-3.23-3.14"/>
					<path class="st34" d="M-2.86,204.29c-1.54-2.35-2.34-5.03-2.75-7.82c-0.41-2.79-0.45-5.69-0.45-8.5
						c-0.01-6.03-0.02-12.08,0.69-18.06c0.65-5.55,1.92-11.02,2.51-16.58c1.02-9.64-0.01-19.36-0.03-29.06
						c-0.03-9.58,0.95-19.16,2.89-28.54"/>
					<path class="st34" d="M752.9,365.48c-16.64,4.76-35.93,9.52-53.39,14.28c-3.24,0.88-6.41,1.76-9.49,2.64
						c-32.33,9.25-64.88,18.53-97.96,24.24c-7.62,1.32-15.28,2.44-22.96,3.33c-6.89,0.8-13.8,1.41-20.74,1.8
						c-60.55,3.39-121.09-10.14-181.6-8.38c-4.17,0.12-8.35,0.31-12.52,0.59c-35.21,2.34-69.5,10.54-103.41,20.57
						c-22.85,6.76-45.54,14.35-68.23,21.55c-2.31,0.74-4.63,1.47-6.94,2.19c-1.48,0.46-2.97,0.93-4.46,1.39
						c-0.26,0.08-0.51,0.16-0.77,0.24c-1.14,0.34-2.28,0.69-3.42,1.04c-2.9,0.88-5.82,1.75-8.75,2.59c-1.46,0.43-2.93,0.85-4.4,1.27
						c-1.37,0.4-2.75,0.79-4.13,1.17c-1.12,0.31-2.23,0.62-3.35,0.93c-0.7,0.19-1.39,0.38-2.09,0.57c-1.65,0.45-3.31,0.89-4.97,1.32
						c-0.79,0.21-1.59,0.42-2.39,0.63c-1.94,0.5-3.89,1-5.84,1.48c-1.34,0.34-2.69,0.67-4.05,1c-1.5,0.36-3.01,0.72-4.52,1.07
						c-1.51,0.36-3.02,0.7-4.53,1.04c-1.52,0.35-3.03,0.68-4.55,1.01c-1.49,0.32-2.99,0.64-4.49,0.96c-0.02,0-0.04,0.01-0.06,0.01
						c-1.52,0.32-3.04,0.63-4.57,0.92c-1.37,0.28-2.74,0.54-4.11,0.8c-1.68,0.32-3.36,0.63-5.04,0.93
						c-1.53,0.27-3.06,0.54-4.59,0.79c-1.53,0.26-3.06,0.51-4.59,0.75c-1.3,0.21-2.61,0.41-3.91,0.6c-1.41,0.21-2.81,0.41-4.22,0.6
						c-1,0.14-2,0.27-3,0.4c-0.15,0.02-0.31,0.04-0.46,0.06c-0.28,0.04-0.56,0.07-0.83,0.1c-0.89,0.12-1.78,0.23-2.67,0.33
						c-0.8,0.1-1.61,0.2-2.42,0.29c-0.57,0.06-1.14,0.13-1.7,0.19c-0.97,0.11-1.95,0.21-2.93,0.3c-0.61,0.07-1.22,0.13-1.84,0.18
						c-0.03,0-0.05,0.01-0.08,0.01c-0.9,0.09-1.79,0.18-2.69,0.24c-0.02,0.01-0.05,0.01-0.07,0.01c-0.26,0.03-0.52,0.05-0.78,0.07
						c-0.1,0.01-0.21,0.02-0.31,0.03c-1.07,0.09-2.13,0.18-3.2,0.25c-0.5,0.04-1.01,0.08-1.51,0.12c-0.09,0.01-0.18,0.01-0.27,0.02
						c-1.08,0.08-2.17,0.15-3.26,0.21c-0.26,0.02-0.52,0.03-0.77,0.05c-1.29,0.07-2.58,0.14-3.87,0.2
						c-0.25,0.01-0.49,0.02-0.73,0.04c-1.47,0.06-2.94,0.12-4.41,0.16c-1.53,0.05-3.05,0.08-4.58,0.1
						c-1.52,0.03-3.04,0.04-4.56,0.04c-10.59,0-21.11-0.58-31.49-1.83c-1.05-0.12-2.1-0.25-3.15-0.39v-0.06l0.86-268.23
						c0.02,0,0.03,0,0.05-0.01c0.94-0.11,1.88-0.25,2.81-0.42c13.73-2.26,26.09-8.05,39.38-12.56c8.8-2.99,17.82-5.12,26.96-6.78
						c33.21-6.03,67.99-5.79,99.65-17.58c13.54-5.04,27.24-12.33,41.23-13.56c3.93-0.35,7.88-0.22,11.86,0.58
						c8.13,1.63,15.5,5.95,23.56,7.88c6.21,1.47,12.66,1.49,19.05,1.5c27,0.03,55.33-0.25,79-13.26c4.2-2.31,8.25-5.02,12.81-6.52
						c5.69-1.86,11.82-1.73,17.82-1.57c31.69,0.83,71.92,1.82,95.4,22.85c50.34,89.92,145.55,157.28,247.95,168.87l1.23,0.46
						c0.16-0.12,0.31-0.23,0.47-0.35c0.42,0.27,0.85,0.54,1.28,0.82C728.87,345.52,740.64,355.78,752.9,365.48z"/>
					<path class="st34" d="M1923.28,494.52c0.26-12.26-0.6-24.23-0.34-36.49c0.21-9.79-0.01-19.64-0.34-29.43
						c-0.21-6.11,0.3-12.23,0-18.34c-0.58-11.47,0.16-22.12,0-33.6c-0.05-3.19-0.38-7.49,0.34-10.6"/>
					<path class="st34" d="M1923.28,494.52c-0.65,41.47-1.14,84.24,0,125.7l1.64,125.12c-0.16,0.26-0.33,0.5-0.49,0.74
						c-1.25,1.72-2.75,2.92-4.43,3.69c-1.24,0.59-2.57,0.94-3.97,1.1c-5.04,0.61-10.87-1.23-15.86-3.5
						c-30.61-13.95-63.82-22.16-93.49-37.61c-4.23-2.2-8.38-4.54-12.45-7.08c-0.09-0.05-0.18-0.1-0.27-0.16
						c-37.04-23.15-66.86-55.64-98.34-86.13c-15.37-14.89-31.15-29.31-48.35-41.93c-6.46-4.74-13.08-9.2-19.84-13.41
						c-6.25-3.9-12.63-7.58-19.11-11.08c-12.16-6.57-24.7-12.49-37.51-17.93c0,0,0,0-0.01,0c-24.49-10.4-49.97-19.05-75.74-27.12
						c-19.6-6.15-39.37-11.98-58.98-18c-68.2-20.93-134.61-44.3-186.08-92.22c-11.99-11.16-22.98-23.52-34.69-34.98
						c-8.77-8.58-17.94-16.65-28.24-23.32c-4.97-3.22-10.14-6.07-15.45-8.63c-15.76-7.59-32.83-12.58-49.84-16.92
						c-27.72-7.07-55.89-12.95-84.29-17.36c-30.83-4.78-61.93-7.82-93.01-8.73c-45.9-1.34-91.76,1.95-136.68,11.11
						c-3.5,0.71-6.94,1.48-10.34,2.31c-24.98,6.05-47.51,15.19-73.29,29.91c-1.5,0.85-3.02,1.73-4.55,2.63"/>
					<path class="st34" d="M1924.48,792.68c0.02-0.57,0.05-1.15,0.06-1.72c0.6-14.86,0.69-29.74,0.29-44.61"/>
					<path class="st34" d="M1925.69,868.97c-1.07,17.04-1.46,34.13-1.15,51.2"/>
					<path class="st34" d="M1922.72,1007.36c0.01-0.08,0.02-0.15,0.03-0.23c0.72-5.85,1.43-11.71,2.14-17.56
						c0.6-4.86,1.19-9.73,1.24-14.63c0.05-5.27-0.53-10.53-0.94-15.79c-0.98-12.69-0.94-25.43-0.75-38.15"/>
					<path class="st34" d="M1922.75,1008.17c0.98,24.33,1.97,48.67,2.96,73"/>
					<path class="st34" d="M1925.12,1082.11c-1.64,0.16-3.27,0.31-4.91,0.44c-21.81,1.84-43.74,1.82-65.64,1.79
						c-101.54-0.12-203.08-0.25-304.62-0.37"/>
					<path class="st34" d="M1550.23,1083c-0.12,0.01-0.24,0.02-0.36,0.03c-117.57,10.64-235.9-0.42-353.95-0.42
						c-0.23,0-0.46,0-0.69,0c-0.04,0-0.07,0-0.11,0"/>
					<path class="st34" d="M1195.23,1082.78c-15.35,0.46-30.7,1.23-46.03,2.29"/>
					<path class="st34" d="M1149.74,1085.55c-0.26,0-0.52,0-0.78,0c-86.53,0.19-173.06,0.38-259.59,0.57
						c-140.97,0.31-281.94,0.62-422.9,0.93"/>
					<path class="st34" d="M468.14,1086.3c-0.57,0.02-1.13,0.04-1.7,0.07c-158.37,6.03-317.1,11.99-475.19,0.84
						c-0.18-0.01-0.36-0.03-0.54-0.04"/>
					<path class="st34" d="M-7.5,1045.22c-0.39,13.63-0.78,27.25-1.17,40.87"/>
					<path class="st34" d="M-3.72,472.58c2.09,17.94-2,35.98-2.32,54.03c-0.13,7.69,0.42,15.39-0.2,23.05
						c-0.44,5.44-1.47,10.82-1.59,16.27c-0.16,6.85,1.11,13.64,1.81,20.46c1.45,14.06,0.47,28.24-0.01,42.36
						c-0.32,9.47-0.36,19.27,3.41,27.96"/>
				</g>
			</g>
		</g>
	</g>
</g>
</svg>
